<?xml version="1.0" encoding="utf-8"?>
<!-- Generator: Adobe Illustrator 24.0.2, SVG Export Plug-In . SVG Version: 6.00 Build 0)  -->
<svg version="1.1" id="Capa_1" xmlns="http://www.w3.org/2000/svg" xmlns:xlink="http://www.w3.org/1999/xlink" x="0px" y="0px"
	 viewBox="0 0 56 56" style="enable-background:new 0 0 56 56;" xml:space="preserve">
<style type="text/css">
	.st0{fill:#32FFD2;}
	.st1{fill:#3F19F9;}
</style>
<g>
	<g>
		<path class="st0" d="M46.26,31H9.74c-1.14,0-2.06-0.92-2.06-2.06v0c0-1.14,0.92-2.06,2.06-2.06h36.53c1.14,0,2.06,0.92,2.06,2.06
			v0C48.33,30.07,47.4,31,46.26,31z"/>
	</g>
	<g>
		<path class="st1" d="M46.26,31.67H9.74C8.23,31.67,7,30.44,7,28.93s1.23-2.74,2.74-2.74h36.53c1.51,0,2.74,1.23,2.74,2.74
			S47.77,31.67,46.26,31.67z M9.74,27.54c-0.77,0-1.39,0.62-1.39,1.39c0,0.77,0.62,1.39,1.39,1.39h36.53c0.77,0,1.39-0.62,1.39-1.39
			c0-0.77-0.62-1.39-1.39-1.39H9.74z"/>
	</g>
	<g>
		<g>
			<path class="st0" d="M35.67,38.03c-0.3-0.7-0.99-1.15-1.75-1.15H20.88c-0.76,0-1.45,0.45-1.75,1.15l-1.12,2.59h18.77L35.67,38.03
				z"/>
		</g>
	</g>
	<g>
		<path class="st1" d="M40.64,41.14H15.36c-3.13,0-5.67-2.54-5.67-5.67V31c0-0.37,0.3-0.67,0.67-0.67h35.27
			c0.37,0,0.67,0.3,0.67,0.67v4.47C46.31,38.6,43.77,41.14,40.64,41.14z M11.04,31.67v3.8c0,2.39,1.94,4.33,4.33,4.33h25.28
			c2.39,0,4.33-1.94,4.33-4.33v-3.8H11.04z"/>
	</g>
	<g>
		<path class="st1" d="M13.02,27.44c-0.37,0-0.67-0.3-0.67-0.67v-7.74c0-3.14,2.68-5.69,5.99-5.69h3.09c0.37,0,0.67,0.3,0.67,0.67
			c0,0.37-0.3,0.67-0.67,0.67h-3.09c-2.56,0-4.64,1.95-4.64,4.35v7.74C13.69,27.14,13.39,27.44,13.02,27.44z"/>
	</g>
	<g>
		<path class="st0" d="M19.45,20.33c-1.94-2.21-1.72-5.57,0.49-7.51s5.57-1.72,7.51,0.49L19.45,20.33z"/>
	</g>
	<g>
		<path class="st1" d="M19.45,21c-0.19,0-0.37-0.08-0.51-0.23c-1.06-1.2-1.58-2.75-1.48-4.35c0.1-1.6,0.82-3.06,2.03-4.12
			c2.49-2.18,6.28-1.93,8.46,0.55c0.12,0.13,0.18,0.31,0.17,0.49c-0.01,0.18-0.09,0.34-0.23,0.46l-8,7.02
			C19.77,20.95,19.61,21,19.45,21z M23.45,12.17c-1.09,0-2.18,0.38-3.07,1.15c-0.93,0.82-1.49,1.95-1.57,3.19
			c-0.07,1.01,0.19,2,0.74,2.83l6.92-6.07C25.61,12.54,24.53,12.17,23.45,12.17z"/>
	</g>
	<g>
		<path class="st1" d="M28.82,22.17c-0.16,0-0.33-0.06-0.46-0.18l-2.97-2.75c-0.27-0.25-0.29-0.68-0.04-0.95
			c0.25-0.27,0.68-0.29,0.95-0.04L29.28,21c0.27,0.25,0.29,0.68,0.04,0.95C29.18,22.09,29,22.17,28.82,22.17z"/>
	</g>
	<g>
		<path class="st1" d="M30.49,17.55c-0.02,0-0.04,0-0.06,0l-2.52-0.23c-0.37-0.03-0.64-0.36-0.61-0.73
			c0.03-0.37,0.36-0.64,0.73-0.61l2.52,0.23c0.37,0.03,0.64,0.36,0.61,0.73C31.13,17.28,30.84,17.55,30.49,17.55z"/>
	</g>
	<g>
		<path class="st1" d="M24.13,23.65c-0.27,0-0.53-0.17-0.63-0.44l-0.92-2.52c-0.13-0.35,0.05-0.73,0.4-0.86
			c0.35-0.13,0.73,0.05,0.86,0.4l0.92,2.52c0.13,0.35-0.05,0.73-0.4,0.86C24.29,23.64,24.21,23.65,24.13,23.65z"/>
	</g>
	<g>
		<path class="st1" d="M35.57,45.18H19.23c-0.87,0-1.67-0.43-2.15-1.16s-0.56-1.64-0.21-2.43l1.65-3.82
			c0.41-0.94,1.34-1.55,2.36-1.55h13.04c1.03,0,1.96,0.61,2.36,1.55l1.65,3.82c0.34,0.8,0.26,1.71-0.21,2.43
			S36.44,45.18,35.57,45.18z M20.88,37.55c-0.49,0-0.93,0.29-1.13,0.74l-1.65,3.82c-0.17,0.39-0.13,0.81,0.1,1.16
			c0.23,0.35,0.61,0.55,1.03,0.55h16.34c0.42,0,0.8-0.2,1.03-0.55c0.23-0.35,0.27-0.78,0.1-1.16l-1.65-3.82
			c-0.19-0.45-0.64-0.74-1.13-0.74H20.88z"/>
	</g>
</g>
</svg>
