<?xml version="1.0" encoding="utf-8"?>
<!-- Generator: Adobe Illustrator 24.0.2, SVG Export Plug-In . SVG Version: 6.00 Build 0)  -->
<svg version="1.1" id="Capa_1" xmlns="http://www.w3.org/2000/svg" xmlns:xlink="http://www.w3.org/1999/xlink" x="0px" y="0px"
	 viewBox="0 0 56 56" style="enable-background:new 0 0 56 56;" xml:space="preserve">
<style type="text/css">
	.st0{fill:#32FFD2;}
	.st1{fill:#3F19F9;}
</style>
<g>
	<g>
		<path class="st0" d="M41.42,20.33H14.58v-0.19c0-2.23,1.8-4.03,4.03-4.03H37.4c2.23,0,4.03,1.8,4.03,4.03V20.33z"/>
	</g>
	<g>
		<path class="st1" d="M37.4,43.53H18.6c-2.54,0-4.6-2.07-4.6-4.6V20.14c0-2.54,2.07-4.6,4.6-4.6H37.4c2.54,0,4.6,2.07,4.6,4.6
			v18.79C42,41.47,39.93,43.53,37.4,43.53z M18.6,16.68c-1.9,0-3.45,1.55-3.45,3.45v18.79c0,1.9,1.55,3.45,3.45,3.45H37.4
			c1.9,0,3.45-1.55,3.45-3.45V20.14c0-1.9-1.55-3.45-3.45-3.45H18.6z"/>
	</g>
	<g>
		<path class="st1" d="M41.42,20.78H14.58c-0.32,0-0.58-0.26-0.58-0.58c0-0.32,0.26-0.58,0.58-0.58h26.85
			c0.32,0,0.58,0.26,0.58,0.58C42,20.52,41.74,20.78,41.42,20.78z"/>
	</g>
	<g>
		<path class="st1" d="M24.8,16.68c-0.32,0-0.58-0.26-0.58-0.58v-1.23c0-0.7-0.57-1.26-1.26-1.26h-0.41c-0.7,0-1.26,0.57-1.26,1.26
			v1.23c0,0.32-0.26,0.58-0.58,0.58c-0.32,0-0.58-0.26-0.58-0.58v-1.23c0-1.33,1.08-2.41,2.41-2.41h0.41c1.33,0,2.41,1.08,2.41,2.41
			v1.23C25.38,16.43,25.12,16.68,24.8,16.68z"/>
	</g>
	<g>
		<path class="st1" d="M35.8,16.68c-0.32,0-0.58-0.26-0.58-0.58v-1.23c0-0.7-0.57-1.26-1.26-1.26h-0.41c-0.7,0-1.26,0.57-1.26,1.26
			v1.23c0,0.32-0.26,0.58-0.58,0.58c-0.32,0-0.58-0.26-0.58-0.58v-1.23c0-1.33,1.08-2.41,2.41-2.41h0.41c1.33,0,2.41,1.08,2.41,2.41
			v1.23C36.37,16.43,36.12,16.68,35.8,16.68z"/>
	</g>
	<g>
		<g>
			<g>
				<circle class="st1" cx="28" cy="26.34" r="1.53"/>
			</g>
			<g>
				<circle class="st1" cx="33.75" cy="26.34" r="1.53"/>
			</g>
		</g>
		<g>
			<g>
				<circle class="st1" cx="22.25" cy="31.71" r="1.53"/>
			</g>
			<g>
				<circle class="st1" cx="28" cy="31.71" r="1.53"/>
			</g>
			<g>
				<circle class="st1" cx="33.75" cy="31.71" r="1.53"/>
			</g>
		</g>
		<g>
			<g>
				<circle class="st1" cx="22.25" cy="37.08" r="1.53"/>
			</g>
			<g>
				<circle class="st1" cx="28" cy="37.08" r="1.53"/>
			</g>
		</g>
	</g>
</g>
</svg>
