<svg id="edificio" xmlns="http://www.w3.org/2000/svg" width="286.181" height="300" viewBox="0 0 286.181 300">
  <g id="Grupo_10" data-name="Grupo 10" transform="translate(0)">
    <g id="Grupo_8" data-name="Grupo 8" transform="translate(91.552 47.693)">
      <g id="Grupo_4" data-name="Grupo 4">
        <g id="Grupo_2" data-name="Grupo 2">
          <path id="Rectángulo_1" data-name="Rectángulo 1" d="M.938,0H32.664A.938.938,0,0,1,33.6.938V33.925a0,0,0,0,1,0,0H0a0,0,0,0,1,0,0V.938A.938.938,0,0,1,.938,0Z" fill="#32ffd2"/>
        </g>
        <g id="Grupo_3" data-name="Grupo 3" transform="translate(69.471)">
          <path id="Rectángulo_2" data-name="Rectángulo 2" d="M.938,0H32.664A.938.938,0,0,1,33.6.938V33.925a0,0,0,0,1,0,0H0a0,0,0,0,1,0,0V.938A.938.938,0,0,1,.938,0Z" fill="#32ffd2"/>
        </g>
      </g>
      <g id="Grupo_7" data-name="Grupo 7" transform="translate(0 79.548)">
        <g id="Grupo_5" data-name="Grupo 5">
          <path id="Rectángulo_3" data-name="Rectángulo 3" d="M.938,0H32.664A.938.938,0,0,1,33.6.938v34.05a0,0,0,0,1,0,0H0a0,0,0,0,1,0,0V.938A.938.938,0,0,1,.938,0Z" fill="#32ffd2"/>
        </g>
        <g id="Grupo_6" data-name="Grupo 6" transform="translate(69.471)">
          <path id="Rectángulo_4" data-name="Rectángulo 4" d="M.938,0H32.664A.938.938,0,0,1,33.6.938V31.585a0,0,0,0,1,0,0H0a0,0,0,0,1,0,0V.938A.938.938,0,0,1,.938,0Z" fill="#32ffd2"/>
        </g>
      </g>
    </g>
    <g id="Grupo_9" data-name="Grupo 9">
      <path id="Trazado_1" data-name="Trazado 1" d="M359.917,1102.3h-36.64V839.343a24.624,24.624,0,0,0-24.6-24.6H147.414a24.63,24.63,0,0,0-24.6,24.6V1102.3H86.18a6.222,6.222,0,1,0,0,12.444H359.917a6.222,6.222,0,1,0,0-12.444ZM135.256,839.343a12.176,12.176,0,0,1,12.158-12.168H298.674a12.177,12.177,0,0,1,12.158,12.168V1102.3H250.005v-58.279c0-9.8-8.622-17.753-19.22-17.753H215.3c-10.6,0-19.22,7.958-19.22,17.753V1102.3H135.256ZM237.561,1102.3H208.527v-58.279c0-2.881,3.1-5.319,6.776-5.319h15.481c3.674,0,6.776,2.438,6.776,5.319Z" transform="translate(-79.958 -814.741)" fill="#3f19f9"/>
      <path id="Trazado_2" data-name="Trazado 2" d="M104.082,889h16.285a14.9,14.9,0,0,0,14.881-14.882v-40a14.9,14.9,0,0,0-14.881-14.882H104.082A14.9,14.9,0,0,0,89.2,834.115v40A14.9,14.9,0,0,0,104.082,889Zm16.285-12.436H104.082a2.448,2.448,0,0,1-2.437-2.446V862.844H122.8v11.272A2.442,2.442,0,0,1,120.367,876.562Zm-16.285-44.884h16.285a2.441,2.441,0,0,1,2.437,2.437V850.4H101.645V834.115A2.447,2.447,0,0,1,104.082,831.678Z" transform="translate(-3.873 -777.765)" fill="#3f19f9"/>
      <path id="Trazado_3" data-name="Trazado 3" d="M111.608,889h16.275a14.9,14.9,0,0,0,14.881-14.882v-40a14.9,14.9,0,0,0-14.881-14.882H111.608a14.9,14.9,0,0,0-14.881,14.882v40A14.9,14.9,0,0,0,111.608,889Zm16.275-12.436H111.608a2.45,2.45,0,0,1-2.446-2.446V862.484h21.159v11.631A2.442,2.442,0,0,1,127.884,876.562Zm-16.275-44.884h16.275a2.441,2.441,0,0,1,2.437,2.437V850.04H109.162V834.115A2.449,2.449,0,0,1,111.608,831.678Z" transform="translate(58.079 -777.765)" fill="#3f19f9"/>
      <path id="Trazado_4" data-name="Trazado 4" d="M120.367,897.614a14.9,14.9,0,0,0,14.881-14.882v-40a14.9,14.9,0,0,0-14.881-14.882H104.082A14.9,14.9,0,0,0,89.2,842.732v40a14.9,14.9,0,0,0,14.881,14.882Zm-16.285-57.319h16.285a2.441,2.441,0,0,1,2.437,2.437v21.418H101.645V842.732A2.447,2.447,0,0,1,104.082,840.295Zm-2.437,42.437v-6.138H122.8v6.138a2.435,2.435,0,0,1-2.437,2.437H104.082A2.441,2.441,0,0,1,101.645,882.732Z" transform="translate(-3.873 -706.833)" fill="#3f19f9"/>
      <path id="Trazado_5" data-name="Trazado 5" d="M111.608,897.614h16.275a14.9,14.9,0,0,0,14.881-14.882v-40a14.9,14.9,0,0,0-14.881-14.882H111.608a14.9,14.9,0,0,0-14.881,14.882v40A14.9,14.9,0,0,0,111.608,897.614Zm16.275-12.444H111.608a2.443,2.443,0,0,1-2.446-2.437V869.679h21.159v13.054A2.435,2.435,0,0,1,127.884,885.17Zm-16.275-44.875h16.275a2.441,2.441,0,0,1,2.437,2.437v14.512H109.162V842.732A2.449,2.449,0,0,1,111.608,840.295Z" transform="translate(58.079 -706.833)" fill="#3f19f9"/>
    </g>
  </g>
</svg>
