<?xml version="1.0" encoding="utf-8"?>
<!-- Generator: Adobe Illustrator 24.1.1, SVG Export Plug-In . SVG Version: 6.00 Build 0)  -->
<svg version="1.1" id="Capa_1" xmlns="http://www.w3.org/2000/svg" xmlns:xlink="http://www.w3.org/1999/xlink" x="0px" y="0px"
	 viewBox="0 0 120 120.7" style="enable-background:new 0 0 120 120.7;" xml:space="preserve">
<style type="text/css">
	.st0{opacity:0.11;}
	.st1{fill:#3F19F9;}
</style>
<g class="st0">
	<path class="st1" d="M60,120.7c-0.3,0-0.6,0-0.9,0c-7-0.5-12.3-6.6-11.8-13.6l0.1-1.6h25.2l0.1,1.6c0,0.6,0,1.2,0,1.8
		C72.2,115.6,66.6,120.7,60,120.7z M50.7,108.9c0.4,4.4,4,8.1,8.6,8.4c5.1,0.4,9.5-3.4,10-8.4H50.7z M111.5,103.3H8.5v-8.3
		l11.7-11.7V51.9c0-18,12-33.6,29.3-38.3v-2.7c0-5.8,4.7-10.5,10.5-10.5s10.5,4.7,10.5,10.5v2.7c17.3,4.7,29.3,20.3,29.3,38.3v31.5
		l11.7,11.7V103.3z M11.9,99.9h96.2v-3.5L96.4,84.7V51.9c0-16.9-11.5-31.4-28-35.3l-1.3-0.3v-5.3c0-3.9-3.2-7.1-7.1-7.1
		s-7.1,3.2-7.1,7.1v5.3l-1.3,0.3c-16.5,3.9-28,18.4-28,35.3v32.9L11.9,96.5V99.9z"/>
</g>
</svg>
