<?xml version="1.0" encoding="utf-8"?>
<!-- Generator: Adobe Illustrator 24.1.1, SVG Export Plug-In . SVG Version: 6.00 Build 0)  -->
<svg version="1.1" id="Capa_1" xmlns="http://www.w3.org/2000/svg" xmlns:xlink="http://www.w3.org/1999/xlink" x="0px" y="0px"
	 viewBox="0 0 120 120.7" style="enable-background:new 0 0 120 120.7;" xml:space="preserve">
<style type="text/css">
	.st0{opacity:0.15;}
	.st1{fill:#32FFD2;}
	.st2{fill:#3F19F9;}
</style>
<g id="Grupo_10" transform="translate(0)" class="st0">
	<g id="Grupo_8" transform="translate(91.552 47.693)">
		<g id="Grupo_4">
			<g id="Grupo_2">
				<path id="Rect치ngulo_1" class="st1" d="M-51.8-27.6h12.7c0.2,0,0.4,0.2,0.4,0.4V-14l0,0h-13.4l0,0v-13.2
					C-52.2-27.4-52-27.6-51.8-27.6z"/>
			</g>
			<g id="Grupo_3" transform="translate(69.471)">
				<path id="Rect치ngulo_2" class="st1" d="M-93.5-27.6h12.7c0.2,0,0.4,0.2,0.4,0.4V-14l0,0h-13.4l0,0v-13.2
					C-93.9-27.4-93.7-27.6-93.5-27.6z"/>
			</g>
		</g>
		<g id="Grupo_7" transform="translate(0 79.548)">
			<g id="Grupo_5">
				<path id="Rect치ngulo_3" class="st1" d="M-51.8-75.3h12.7c0.2,0,0.4,0.2,0.4,0.4v13.6l0,0h-13.4l0,0V-75
					C-52.2-75.2-52-75.3-51.8-75.3z"/>
			</g>
			<g id="Grupo_6" transform="translate(69.471)">
				<path id="Rect치ngulo_4" class="st1" d="M-93.5-75.3h12.7c0.2,0,0.4,0.2,0.4,0.4v12.3l0,0h-13.4l0,0V-75
					C-93.9-75.2-93.7-75.3-93.5-75.3z"/>
			</g>
		</g>
	</g>
	<g id="Grupo_9">
		<path id="Trazado_1" class="st2" d="M114.7,116h-14.7V10.8c0-5.4-4.4-9.8-9.8-9.8H29.7c-5.4,0-9.8,4.4-9.8,9.8V116H5.3
			c-1.4,0-2.5,1.1-2.5,2.5c0,1.4,1.1,2.5,2.5,2.5c0,0,0,0,0,0h109.5c1.4,0,2.5-1.1,2.5-2.5C117.2,117.1,116.1,116,114.7,116
			C114.8,116,114.7,116,114.7,116z M24.9,10.8c0-2.7,2.2-4.9,4.9-4.9h60.5c2.7,0,4.9,2.2,4.9,4.9V116H70.8V92.7
			c0-3.9-3.4-7.1-7.7-7.1h-6.2c-4.2,0-7.7,3.2-7.7,7.1V116H24.9V10.8z M65.8,116H54.2V92.7c0-1.2,1.2-2.1,2.7-2.1h6.2
			c1.5,0,2.7,1,2.7,2.1L65.8,116z"/>
		<path id="Trazado_2" class="st2" d="M42.8,45.5h6.5c3.3,0,5.9-2.7,6-6v-16c0-3.3-2.7-5.9-6-6h-6.5c-3.3,0-5.9,2.7-6,6v16
			C36.9,42.8,39.6,45.5,42.8,45.5z M49.4,40.5h-6.5c-0.5,0-1-0.4-1-1V35h8.5v4.5C50.3,40.1,49.9,40.5,49.4,40.5L49.4,40.5z
			 M42.8,22.6h6.5c0.5,0,1,0.4,1,1v6.5h-8.5v-6.5C41.9,23,42.3,22.6,42.8,22.6L42.8,22.6z"/>
		<path id="Trazado_3" class="st2" d="M70.6,45.5h6.5c3.3,0,5.9-2.7,6-6v-16c0-3.3-2.7-5.9-6-6h-6.5c-3.3,0-5.9,2.7-6,6v16
			C64.7,42.8,67.4,45.5,70.6,45.5z M77.1,40.5h-6.5c-0.5,0-1-0.4-1-1v-4.7h8.5v4.7C78.1,40.1,77.7,40.5,77.1,40.5
			C77.1,40.5,77.1,40.5,77.1,40.5L77.1,40.5z M70.6,22.6h6.5c0.5,0,1,0.4,1,1v6.4h-8.5v-6.4C69.7,23,70.1,22.6,70.6,22.6L70.6,22.6z
			"/>
		<path id="Trazado_4" class="st2" d="M49.4,77.3c3.3,0,5.9-2.7,6-6v-16c0-3.3-2.7-5.9-6-6h-6.5c-3.3,0-5.9,2.7-6,6v16
			c0,3.3,2.7,5.9,6,6H49.4z M42.8,54.4h6.5c0.5,0,1,0.4,1,1v8.6h-8.5v-8.6C41.9,54.8,42.3,54.4,42.8,54.4L42.8,54.4z M41.9,71.4
			v-2.5h8.5v2.5c0,0.5-0.4,1-1,1c0,0,0,0,0,0h-6.5C42.3,72.3,41.9,71.9,41.9,71.4L41.9,71.4z"/>
		<path id="Trazado_5" class="st2" d="M70.6,77.3h6.5c3.3,0,5.9-2.7,6-6v-16c0-3.3-2.7-5.9-6-6h-6.5c-3.3,0-5.9,2.7-6,6v16
			C64.7,74.6,67.4,77.3,70.6,77.3z M77.1,72.3h-6.5c-0.5,0-1-0.4-1-1v-5.2h8.5v5.2C78.1,71.9,77.7,72.3,77.1,72.3
			C77.1,72.3,77.1,72.3,77.1,72.3L77.1,72.3z M70.6,54.4h6.5c0.5,0,1,0.4,1,1v5.8h-8.5v-5.8C69.7,54.8,70.1,54.4,70.6,54.4
			L70.6,54.4z"/>
	</g>
</g>
</svg>
