<?xml version="1.0" encoding="utf-8"?>
<!-- Generator: Adobe Illustrator 24.0.2, SVG Export Plug-In . SVG Version: 6.00 Build 0)  -->
<svg version="1.1" id="Capa_1" xmlns="http://www.w3.org/2000/svg" xmlns:xlink="http://www.w3.org/1999/xlink" x="0px" y="0px"
	 viewBox="0 0 56 56" style="enable-background:new 0 0 56 56;" xml:space="preserve">
<style type="text/css">
	.st0{fill:#32FFD2;}
	.st1{fill:#3F19F9;}
</style>
<g>
	<g>
		<g>
			<path class="st0" d="M33.53,35.04c-0.48-1.3-1.72-2.15-3.1-2.15h-4.91c-1.41,0-2.66,0.89-3.13,2.21l-0.12,0.34h11.41L33.53,35.04
				z"/>
		</g>
	</g>
	<path class="st1" d="M39.69,16.95c1,0,1.81-0.81,1.81-1.81v-0.82c0-1-0.81-1.81-1.81-1.81H16.31c-1,0-1.81,0.81-1.81,1.81v0.82
		c0,1,0.81,1.81,1.81,1.81h0.32l1.91,8.33h-2.32c-0.95,0-1.72,0.77-1.72,1.72c0,0.95,0.77,1.72,1.72,1.72h0.3
		c0.2,3.2,2.26,5.89,5.12,7l-0.95,2.7c-0.42,1.18-0.24,2.45,0.49,3.47c0.72,1.02,1.86,1.61,3.11,1.61h7.44
		c1.25,0,2.42-0.61,3.13-1.64c0.71-1.03,0.88-2.34,0.44-3.51l-0.98-2.62c2.87-1.11,4.95-3.81,5.15-7.01h0.3
		c0.95,0,1.72-0.77,1.72-1.72c0-0.95-0.77-1.72-1.72-1.72h-2.32l1.91-8.33H39.69z M15.5,15.14v-0.82c0-0.45,0.36-0.81,0.81-0.81
		h23.37c0.45,0,0.81,0.36,0.81,0.81v0.82c0,0.45-0.36,0.81-0.81,0.81H16.31C15.86,15.95,15.5,15.58,15.5,15.14z M34.37,38.7
		c0.33,0.88,0.21,1.82-0.32,2.59c-0.53,0.77-1.38,1.21-2.31,1.21H24.3c-0.92,0-1.76-0.43-2.3-1.19c-0.53-0.75-0.66-1.69-0.36-2.56
		l0.96-2.73c0.63,0.16,1.28,0.25,1.96,0.25h6.89c0.67,0,1.31-0.09,1.93-0.24L34.37,38.7z M22.95,35.09c0.44-1.02,1.45-1.7,2.57-1.7
		h4.91c1.12,0,2.14,0.68,2.58,1.71c-0.5,0.11-1.03,0.18-1.56,0.18h-6.89C24,35.28,23.47,35.21,22.95,35.09z M33.97,34.8
		c-0.57-1.45-1.98-2.42-3.54-2.42h-4.91c-1.56,0-2.96,0.96-3.53,2.4c-2.48-0.97-4.28-3.3-4.47-6.07h20.96
		C38.29,31.5,36.47,33.84,33.97,34.8z M40.5,27c0,0.4-0.32,0.72-0.72,0.72H39.5h-23h-0.28c-0.4,0-0.72-0.32-0.72-0.72
		c0-0.4,0.32-0.72,0.72-0.72h23.56C40.18,26.28,40.5,26.6,40.5,27z M36.43,25.28H19.57l-1.91-8.33h20.68L36.43,25.28z"/>
	<g>
		<path class="st0" d="M25.22,21.39h-4.44c-0.28,0-0.5-0.22-0.5-0.5s0.22-0.5,0.5-0.5h4.44c0.28,0,0.5,0.22,0.5,0.5
			S25.5,21.39,25.22,21.39z"/>
	</g>
</g>
</svg>
