<?xml version="1.0" encoding="utf-8"?>
<!-- Generator: Adobe Illustrator 24.0.2, SVG Export Plug-In . SVG Version: 6.00 Build 0)  -->
<svg version="1.1" id="Capa_1" xmlns="http://www.w3.org/2000/svg" xmlns:xlink="http://www.w3.org/1999/xlink" x="0px" y="0px"
	 viewBox="0 0 56 56" style="enable-background:new 0 0 56 56;" xml:space="preserve">
<style type="text/css">
	.st0{fill:#3F19F9;}
	.st1{fill:#32FFD2;}
</style>
<g>
	<g>
		<path class="st0" d="M34.14,42.6h-2.26c-0.4,0-0.73-0.32-0.73-0.73s0.32-0.73,0.73-0.73h2.26c2.71,0,4.91-2.2,4.91-4.91V15.57
			c0-2.71-2.2-4.91-4.91-4.91H21.86c-2.71,0-4.91,2.2-4.91,4.91v20.67c0,2.71,2.2,4.91,4.91,4.91h3.32c0.4,0,0.73,0.32,0.73,0.73
			s-0.32,0.73-0.73,0.73h-3.32c-3.51,0-6.36-2.85-6.36-6.36V15.57c0-3.51,2.85-6.36,6.36-6.36h12.28c3.51,0,6.36,2.85,6.36,6.36
			v20.67C40.5,39.74,37.65,42.6,34.14,42.6z"/>
	</g>
	<g>
		<path class="st0" d="M39.77,19.65h-7.74c-0.4,0-0.73-0.32-0.73-0.73V9.94c0-0.4,0.32-0.73,0.73-0.73c0.4,0,0.73,0.32,0.73,0.73
			v8.26h7.02c0.4,0,0.73,0.32,0.73,0.73C40.5,19.33,40.18,19.65,39.77,19.65z"/>
	</g>
	<g>
		<circle class="st1" cx="28.48" cy="31.87" r="5.16"/>
	</g>
	<g>
		<polyline class="st1" points="31.55,36.39 31.55,46.06 28.51,43.81 25.42,46.06 25.42,36.39 		"/>
	</g>
	<g>
		<path class="st0" d="M28.48,37.76c-3.25,0-5.89-2.64-5.89-5.89s2.64-5.89,5.89-5.89s5.89,2.64,5.89,5.89S31.73,37.76,28.48,37.76z
			 M28.48,27.44c-2.45,0-4.44,1.99-4.44,4.44s1.99,4.44,4.44,4.44s4.44-1.99,4.44-4.44S30.93,27.44,28.48,27.44z"/>
	</g>
	<g>
		<path class="st0" d="M24.94,46.79c-0.12,0-0.24-0.03-0.35-0.09c-0.23-0.13-0.38-0.37-0.38-0.64v-9.68c0-0.4,0.32-0.73,0.73-0.73
			s0.73,0.32,0.73,0.73v8.36l2.46-1.55c0.24-0.15,0.54-0.15,0.78,0l2.4,1.54v-8.35c0-0.4,0.32-0.73,0.73-0.73
			c0.4,0,0.73,0.32,0.73,0.73v9.68c0,0.27-0.14,0.51-0.38,0.64c-0.23,0.13-0.52,0.12-0.74-0.03l-3.13-2.01l-3.18,2.01
			C25.2,46.75,25.07,46.79,24.94,46.79z"/>
	</g>
</g>
</svg>
