<?xml version="1.0" encoding="utf-8"?>
<!-- Generator: Adobe Illustrator 24.0.2, SVG Export Plug-In . SVG Version: 6.00 Build 0)  -->
<svg version="1.1" id="Capa_1" xmlns="http://www.w3.org/2000/svg" xmlns:xlink="http://www.w3.org/1999/xlink" x="0px" y="0px"
	 viewBox="0 0 56 56" style="enable-background:new 0 0 56 56;" xml:space="preserve">
<style type="text/css">
	.st0{fill:#3F19F9;}
	.st1{fill:#32FFD2;}
</style>
<g>
	<g>
		<g>
			<path class="st0" d="M31.3,20.07c-0.35,0-0.64-0.29-0.64-0.64V12c0-0.35,0.29-0.64,0.64-0.64s0.64,0.29,0.64,0.64v7.43
				C31.94,19.78,31.65,20.07,31.3,20.07z"/>
		</g>
		<g>
			<path class="st0" d="M35.02,20.1h-7.43c-0.35,0-0.64-0.29-0.64-0.64s0.29-0.64,0.64-0.64h7.43c0.35,0,0.64,0.29,0.64,0.64
				S35.37,20.1,35.02,20.1z"/>
		</g>
	</g>
	<g>
		<g>
			<path class="st0" d="M20.57,22.23h-7.43c-0.35,0-0.64-0.29-0.64-0.64c0-0.35,0.29-0.64,0.64-0.64h7.43
				c0.35,0,0.64,0.29,0.64,0.64C21.2,21.94,20.92,22.23,20.57,22.23z"/>
		</g>
		<g>
			<path class="st0" d="M20.6,25.94c-0.35,0-0.64-0.29-0.64-0.64v-7.43c0-0.35,0.29-0.64,0.64-0.64s0.64,0.29,0.64,0.64v7.43
				C21.24,25.66,20.95,25.94,20.6,25.94z"/>
		</g>
	</g>
	<g>
		<g>
			<path class="st0" d="M37.33,44.8c-0.35,0-0.64-0.29-0.64-0.64v-4.95c0-0.35,0.29-0.64,0.64-0.64s0.64,0.29,0.64,0.64v4.95
				C37.97,44.52,37.69,44.8,37.33,44.8z"/>
		</g>
		<g>
			<path class="st0" d="M30.73,44.8c-0.35,0-0.64-0.29-0.64-0.64v-4.95c0-0.35,0.29-0.64,0.64-0.64c0.35,0,0.64,0.29,0.64,0.64v4.95
				C31.37,44.52,31.08,44.8,30.73,44.8z"/>
		</g>
	</g>
	<g>
		<path class="st1" d="M17.29,41.69h7.2V30.34H13.14v7.2C13.14,39.83,14.99,41.69,17.29,41.69z"/>
	</g>
	<g>
		<path class="st0" d="M24.49,42.04c-0.35,0-0.64-0.29-0.64-0.64V30.97H13.14c-0.35,0-0.64-0.29-0.64-0.64
			c0-0.35,0.29-0.64,0.64-0.64h11.35c0.35,0,0.64,0.29,0.64,0.64v11.07C25.13,41.76,24.84,42.04,24.49,42.04z"/>
	</g>
	<g>
		<path class="st0" d="M14.8,40.67c-0.16,0-0.33-0.06-0.45-0.19c-0.25-0.25-0.25-0.65,0-0.9l9.69-9.69c0.25-0.25,0.65-0.25,0.9,0
			c0.25,0.25,0.25,0.65,0,0.9l-9.69,9.69C15.12,40.6,14.96,40.67,14.8,40.67z"/>
	</g>
	<g>
		<path class="st0" d="M13.44,36.87c-0.16,0-0.33-0.06-0.45-0.19c-0.25-0.25-0.25-0.65,0-0.9l5.9-5.9c0.25-0.25,0.65-0.25,0.9,0
			c0.25,0.25,0.25,0.65,0,0.9l-5.9,5.9C13.77,36.81,13.6,36.87,13.44,36.87z"/>
	</g>
	<g>
		<path class="st0" d="M18.56,41.99c-0.16,0-0.33-0.06-0.45-0.19c-0.25-0.25-0.25-0.65,0-0.9l5.9-5.9c0.25-0.25,0.65-0.25,0.9,0
			c0.25,0.25,0.25,0.65,0,0.9l-5.9,5.9C18.89,41.93,18.72,41.99,18.56,41.99z"/>
	</g>
	<g>
		<path class="st0" d="M38.4,42.19H17.6c-2.81,0-5.1-2.29-5.1-5.1v-20.8c0-2.81,2.29-5.1,5.1-5.1h20.8c2.81,0,5.1,2.29,5.1,5.1v20.8
			C43.5,39.91,41.21,42.19,38.4,42.19z M17.6,12.47c-2.11,0-3.82,1.72-3.82,3.82v20.8c0,2.11,1.72,3.82,3.82,3.82h20.8
			c2.11,0,3.82-1.72,3.82-3.82v-20.8c0-2.11-1.72-3.82-3.82-3.82H17.6z"/>
	</g>
</g>
</svg>
