<?xml version="1.0" encoding="utf-8"?>
<!-- Generator: Adobe Illustrator 24.0.2, SVG Export Plug-In . SVG Version: 6.00 Build 0)  -->
<svg version="1.1" id="Capa_1" xmlns="http://www.w3.org/2000/svg" xmlns:xlink="http://www.w3.org/1999/xlink" x="0px" y="0px"
	 viewBox="0 0 56 56" style="enable-background:new 0 0 56 56;" xml:space="preserve">
<style type="text/css">
	.st0{fill:#32FFD2;}
	.st1{fill:#3F19F9;}
</style>
<g>
	<g>
		<path class="st0" d="M34.25,21.75v-1.22c0-1.45-1.17-2.62-2.62-2.62h-7.26c-1.45,0-2.62,1.17-2.62,2.62v1.22H34.25z"/>
	</g>
	<g>
		<path class="st0" d="M25.44,47.19v-4.05c0-0.75,0.61-1.35,1.35-1.35h2.41c0.75,0,1.35,0.61,1.35,1.35v4.05"/>
	</g>
	<g>
		<path class="st1" d="M41.36,46.55H38.3V23.49c0-1.39-1.13-2.53-2.53-2.53h-0.88v-0.43c0-1.23-0.69-2.29-1.71-2.85v-2.14
			c0-1.08-0.77-2.01-1.83-2.21l-2.72-0.51V8.81c0-0.35-0.29-0.64-0.64-0.64c-0.35,0-0.64,0.29-0.64,0.64v3.78l-1.89-0.35
			c-0.66-0.12-1.33,0.05-1.85,0.48c-0.52,0.43-0.81,1.06-0.81,1.73v3.24c-1.01,0.55-1.71,1.62-1.71,2.85v0.43h-0.88
			c-1.39,0-2.53,1.13-2.53,2.53v23.05h-3.06c-0.35,0-0.64,0.29-0.64,0.64c0,0.35,0.29,0.64,0.64,0.64h26.72
			c0.35,0,0.64-0.29,0.64-0.64C42,46.83,41.71,46.55,41.36,46.55z M24.09,14.44c0-0.29,0.13-0.56,0.35-0.74
			c0.22-0.18,0.51-0.26,0.8-0.21l5.88,1.1c0.46,0.09,0.79,0.49,0.79,0.95v1.75c-0.09-0.01-0.18-0.03-0.28-0.03h-7.26
			c-0.09,0-0.18,0.02-0.28,0.03V14.44z M22.39,20.53c0-1.09,0.89-1.98,1.98-1.98h7.26c1.09,0,1.98,0.89,1.98,1.98v0.43H22.39V20.53z
			 M22.39,22.24h11.23v1.99H22.39V22.24z M18.97,23.49c0-0.69,0.56-1.25,1.25-1.25h0.88v3.27h13.79v-3.27h0.88
			c0.69,0,1.25,0.56,1.25,1.25v23.05H31.2v-3.41c0-1.1-0.89-1.99-1.99-1.99H26.8c-1.1,0-1.99,0.89-1.99,1.99v3.41h-5.83V23.49z
			 M29.92,46.55h-3.84v-3.41c0-0.39,0.32-0.71,0.71-0.71h2.41c0.39,0,0.71,0.32,0.71,0.71V46.55z"/>
		<path class="st1" d="M25.16,32.41c0.94,0,1.71-0.76,1.71-1.71s-0.76-1.71-1.71-1.71c-0.94,0-1.71,0.76-1.71,1.71
			S24.22,32.41,25.16,32.41z"/>
		<path class="st1" d="M31.13,32.41c0.94,0,1.71-0.76,1.71-1.71s-0.76-1.71-1.71-1.71c-0.94,0-1.71,0.76-1.71,1.71
			S30.18,32.41,31.13,32.41z"/>
		<path class="st1" d="M25.16,37.52c0.94,0,1.71-0.76,1.71-1.71s-0.76-1.71-1.71-1.71c-0.94,0-1.71,0.76-1.71,1.71
			S24.22,37.52,25.16,37.52z"/>
		<path class="st1" d="M31.13,37.52c0.94,0,1.71-0.76,1.71-1.71s-0.76-1.71-1.71-1.71c-0.94,0-1.71,0.76-1.71,1.71
			S30.18,37.52,31.13,37.52z"/>
	</g>
</g>
</svg>
