<?xml version="1.0" encoding="utf-8"?>
<!-- Generator: Adobe Illustrator 24.0.2, SVG Export Plug-In . SVG Version: 6.00 Build 0)  -->
<svg version="1.1" id="Capa_1" xmlns="http://www.w3.org/2000/svg" xmlns:xlink="http://www.w3.org/1999/xlink" x="0px" y="0px"
	 viewBox="0 0 56 56" style="enable-background:new 0 0 56 56;" xml:space="preserve">
<style type="text/css">
	.st0{fill:#32FFD2;}
	.st1{fill:#3F19F9;}
</style>
<g>
	<g>
		<path class="st0" d="M22.35,21.53v12.06h3.4c0.07-1.12,0.99-2.01,2.13-2.01c1.14,0,2.06,0.89,2.13,2.01h3.4V21.53H22.35z"/>
	</g>
	<path class="st1" d="M43.26,15.36c0-2.1-1.71-3.81-3.81-3.81h-22.9c-2.1,0-3.81,1.71-3.81,3.81v0.96h2.39v28.14h25.75V16.32h2.39
		V15.36z M22.91,25.42h9.92v2.39h-9.92V25.42z M22.91,28.94h9.92v4.08h-2.35c-0.31-1.16-1.37-2.01-2.61-2.01
		c-1.24,0-2.3,0.85-2.61,2.01h-2.35V28.94z M32.84,22.54v1.76h-9.92v-1.76v-0.69h9.92V22.54z M26.28,34.16l0.03-0.53
		c0.05-0.83,0.74-1.48,1.57-1.48s1.52,0.65,1.56,1.48l0.03,0.53h3.37v9.17h-9.92v-9.17H26.28z M39.75,43.33h-5.78v-9.17V22.54v-1.82
		H21.78v1.82v11.62v9.17h-5.53V16.32h23.49V43.33z M40.88,15.19H15.12h-1.25c0.09-1.4,1.26-2.51,2.68-2.51h22.9
		c1.42,0,2.59,1.11,2.68,2.51H40.88z"/>
</g>
</svg>
