<?xml version="1.0" encoding="utf-8"?>
<!-- Generator: Adobe Illustrator 24.0.2, SVG Export Plug-In . SVG Version: 6.00 Build 0)  -->
<svg version="1.1" id="Capa_1" xmlns="http://www.w3.org/2000/svg" xmlns:xlink="http://www.w3.org/1999/xlink" x="0px" y="0px"
	 viewBox="0 0 56 56" style="enable-background:new 0 0 56 56;" xml:space="preserve">
<style type="text/css">
	.st0{fill:#32FFD2;}
	.st1{fill:#3F19F9;}
</style>
<g>
	<g>
		<g>
			<g>
				<line class="st0" x1="17.64" y1="18.47" x2="13.62" y2="22.49"/>
			</g>
			<g>
				<line class="st0" x1="20.95" y1="21.77" x2="13.78" y2="28.95"/>
			</g>
			<g>
				<line class="st0" x1="24.26" y1="25.08" x2="13.62" y2="35.73"/>
			</g>
			<g>
				<line class="st0" x1="27.57" y1="28.39" x2="14.94" y2="41.01"/>
			</g>
			<g>
				<line class="st0" x1="30.88" y1="31.7" x2="20.42" y2="42.15"/>
			</g>
			<g>
				<line class="st0" x1="34.18" y1="35.01" x2="27.01" y2="42.18"/>
			</g>
			<g>
				<line class="st0" x1="37.49" y1="38.31" x2="33.42" y2="42.38"/>
			</g>
		</g>
		<g>
			<g>
				<path class="st0" d="M14.63,15.16c-0.63,0.75-1.01,1.72-1.01,2.77v20.13c0,2.38,1.93,4.32,4.32,4.32h20.13
					c1.12,0,2.13-0.43,2.9-1.12L14.63,15.16z"/>
			</g>
		</g>
		<g>
			<line class="st0" x1="40.47" y1="41.01" x2="14.69" y2="15.09"/>
		</g>
	</g>
	<path class="st1" d="M38.07,13H17.93c-1.44,0-2.72,0.63-3.63,1.61c-0.02,0.01-0.04,0.02-0.05,0.04c-0.05,0.05-0.07,0.1-0.1,0.15
		C13.44,15.66,13,16.74,13,17.93v20.13c0,2.72,2.21,4.93,4.93,4.93h20.13c2.72,0,4.93-2.21,4.93-4.93V17.93
		C43,15.21,40.79,13,38.07,13z M14.23,29.36l6.91-6.91l2.43,2.44l-9.34,9.34V29.36z M14.23,27.62v-4.87l3.61-3.61l2.43,2.44
		L14.23,27.62z M14.23,21.01v-3.07c0-0.69,0.2-1.34,0.54-1.89l2.21,2.22L14.23,21.01z M14.23,35.98l10.21-10.21l2.43,2.44
		L14.9,40.18c-0.42-0.6-0.67-1.33-0.67-2.11V35.98z M15.77,41.06l11.97-11.97l2.43,2.44L19.99,41.71c-0.02,0.02-0.02,0.04-0.03,0.05
		h-2.02C17.12,41.77,16.38,41.5,15.77,41.06z M28.29,41.77l6.04-6.04l2.43,2.44l-3.6,3.6H28.29z M26.58,41.74
		c-0.01,0.01-0.01,0.02-0.02,0.02h-4.88l9.36-9.36l2.43,2.44L26.58,41.74z M34.91,41.77l2.73-2.73l2.23,2.24
		c-0.53,0.3-1.14,0.49-1.8,0.49H34.91z M41.77,38.07c0,0.94-0.36,1.79-0.94,2.44L15.58,15.1c0.64-0.54,1.46-0.87,2.36-0.87h20.13
		c2.04,0,3.7,1.66,3.7,3.7V38.07z"/>
</g>
</svg>
