<?xml version="1.0" encoding="utf-8"?>
<!-- Generator: Adobe Illustrator 24.0.2, SVG Export Plug-In . SVG Version: 6.00 Build 0)  -->
<svg version="1.1" id="Capa_1" xmlns="http://www.w3.org/2000/svg" xmlns:xlink="http://www.w3.org/1999/xlink" x="0px" y="0px"
	 viewBox="0 0 56 56" style="enable-background:new 0 0 56 56;" xml:space="preserve">
<style type="text/css">
	.st0{fill:#32FFD2;}
	.st1{fill:#3F19F9;}
</style>
<g>
	<g>
		<path class="st0" d="M38.07,42.38H17.93c-2.38,0-4.32-1.93-4.32-4.32V17.93c0-2.38,1.93-4.32,4.32-4.32h20.13
			c2.38,0,4.32,1.93,4.32,4.32v20.13C42.38,40.45,40.45,42.38,38.07,42.38z"/>
	</g>
	<path class="st1" d="M38.07,13H17.93C15.21,13,13,15.21,13,17.93v20.13c0,2.72,2.21,4.93,4.93,4.93h20.13
		c2.72,0,4.93-2.21,4.93-4.93V17.93C43,15.21,40.79,13,38.07,13z M37.18,37.79c-0.04,0.03-0.09,0.05-0.13,0.08l-3.89,3.89h-4.87
		l6.01-6.01c0.04-0.03,0.09-0.05,0.13-0.08l7.34-7.34v4.89c-0.02,0.01-0.04,0.02-0.05,0.04L37.18,37.79z M30.99,32.45
		c0.04-0.03,0.09-0.05,0.13-0.08l10.65-10.65v4.95c-0.08,0.03-0.15,0.07-0.22,0.14l-7.68,7.68c-0.04,0.03-0.09,0.05-0.13,0.08
		l-7.17,7.17c-0.01,0.01-0.01,0.02-0.02,0.02h-4.88L30.99,32.45z M23.95,24.56c-0.04,0.03-0.09,0.05-0.13,0.08l-9.59,9.59v-4.87
		l6.84-6.84c0.04-0.03,0.09-0.05,0.13-0.08l7.99-7.99c0.06-0.06,0.11-0.14,0.14-0.22h4.95L23.95,24.56z M17.76,19.22
		c0.04-0.03,0.09-0.05,0.13-0.08l4.89-4.89c0,0,0-0.01,0.01-0.01h4.88l-7.02,7.02c-0.04,0.03-0.09,0.05-0.13,0.08l-6.28,6.28v-4.87
		L17.76,19.22z M17.93,14.23h3.11l-3.71,3.71c-0.04,0.03-0.09,0.05-0.13,0.08l-2.98,2.98v-3.07C14.23,15.89,15.89,14.23,17.93,14.23
		z M14.23,35.98l10.14-10.14c0.04-0.03,0.09-0.05,0.13-0.08l11.27-11.27c0.07-0.07,0.11-0.16,0.14-0.24h2.14
		c0.8,0,1.53,0.26,2.14,0.69L27.26,27.87c-0.04,0.03-0.09,0.05-0.13,0.08L14.9,40.18c-0.42-0.6-0.67-1.33-0.67-2.11V35.98z
		 M15.77,41.06l11.91-11.91c0.04-0.03,0.09-0.05,0.13-0.08L41.08,15.8c0.43,0.61,0.69,1.34,0.69,2.14V20
		c-0.02,0.01-0.04,0.02-0.05,0.04L30.57,31.18c-0.04,0.03-0.09,0.05-0.13,0.08L19.99,41.71c-0.02,0.02-0.02,0.04-0.03,0.05h-2.02
		C17.12,41.77,16.38,41.5,15.77,41.06z M38.07,41.77h-3.16l2.7-2.7c0.04-0.03,0.09-0.05,0.13-0.08l4.03-4.03v3.11
		C41.77,40.11,40.11,41.77,38.07,41.77z"/>
</g>
</svg>
