<?xml version="1.0" encoding="utf-8"?>
<!-- Generator: Adobe Illustrator 24.0.2, SVG Export Plug-In . SVG Version: 6.00 Build 0)  -->
<svg version="1.1" id="Capa_1" xmlns="http://www.w3.org/2000/svg" xmlns:xlink="http://www.w3.org/1999/xlink" x="0px" y="0px"
	 viewBox="0 0 56 56" style="enable-background:new 0 0 56 56;" xml:space="preserve">
<style type="text/css">
	.st0{fill:#32FFD2;}
	.st1{fill:#3F19F9;}
</style>
<g>
	<g>
		<path class="st0" d="M32.4,18.82v-2.3c0-2.54-2.06-4.59-4.59-4.59s-4.59,2.06-4.59,4.59v2.3"/>
	</g>
	<g>
		<path class="st1" d="M39.78,44.93H16.22c-1.09,0-2.12-0.47-2.82-1.3c-0.71-0.82-1.02-1.91-0.86-2.99l2.95-19.33
			c0.28-1.83,1.83-3.16,3.68-3.16h17.65c1.85,0,3.4,1.33,3.68,3.16l2.95,19.33c0.16,1.07-0.15,2.16-0.86,2.99
			C41.89,44.45,40.86,44.93,39.78,44.93z M19.17,19.87c-1,0-1.83,0.71-1.98,1.7L14.24,40.9c-0.09,0.58,0.08,1.16,0.46,1.61
			c0.38,0.44,0.93,0.7,1.52,0.7h23.56c0.58,0,1.14-0.25,1.52-0.7c0.38-0.44,0.55-1.03,0.46-1.61L38.8,21.57
			c-0.15-0.98-0.98-1.7-1.98-1.7H19.17z"/>
	</g>
	<g>
		<path class="st1" d="M32.4,28.1c-0.48,0-0.86-0.39-0.86-0.86V16.52c0-2.06-1.67-3.73-3.73-3.73s-3.73,1.67-3.73,3.73v10.71
			c0,0.48-0.39,0.86-0.86,0.86s-0.86-0.39-0.86-0.86V16.52c0-3.01,2.45-5.45,5.45-5.45s5.45,2.45,5.45,5.45v10.71
			C33.26,27.71,32.87,28.1,32.4,28.1z"/>
	</g>
</g>
</svg>
