<?xml version="1.0" encoding="utf-8"?>
<!-- Generator: Adobe Illustrator 24.0.2, SVG Export Plug-In . SVG Version: 6.00 Build 0)  -->
<svg version="1.1" id="Capa_1" xmlns="http://www.w3.org/2000/svg" xmlns:xlink="http://www.w3.org/1999/xlink" x="0px" y="0px"
	 viewBox="0 0 56 56" style="enable-background:new 0 0 56 56;" xml:space="preserve">
<style type="text/css">
	.st0{fill:#32FFD2;}
	.st1{fill:none;stroke:#3F19F9;stroke-width:4.5;stroke-linecap:round;stroke-linejoin:round;stroke-miterlimit:10;}
	.st2{fill:#3F19F9;}
</style>
<g>
	<g>
		<path class="st0" d="M15.61,39.35c-2.24,0-3.84-2.17-3.19-4.31l4.79-15.69c0.43-1.4,1.72-2.36,3.19-2.36h15.2
			c1.47,0,2.76,0.96,3.19,2.36l4.79,15.69c0.65,2.14-0.95,4.31-3.19,4.31"/>
	</g>
	<g>
		<g>
			<path class="st1" d="M27.96,24.63"/>
		</g>
		<g>
			<path class="st2" d="M27.96,27.22c-0.42,0-0.77-0.34-0.77-0.77v-5.32c0-0.42,0.34-0.77,0.77-0.77c0.42,0,0.77,0.34,0.77,0.77
				v5.32C28.72,26.88,28.38,27.22,27.96,27.22z"/>
		</g>
		<g>
			<path class="st2" d="M25.28,24.34c-0.2,0-0.41-0.08-0.56-0.24c-0.29-0.31-0.28-0.79,0.03-1.09l2.68-2.54
				c0.3-0.28,0.76-0.28,1.06,0l2.68,2.54c0.31,0.29,0.32,0.78,0.03,1.09c-0.29,0.31-0.78,0.32-1.09,0.03l-2.15-2.04l-2.15,2.04
				C25.66,24.27,25.47,24.34,25.28,24.34z"/>
		</g>
	</g>
	<g>
		<g>
			<path class="st1" d="M27.96,30.01"/>
		</g>
		<g>
			<path class="st2" d="M27.96,35.99c-0.42,0-0.77-0.34-0.77-0.77v-8.81c0-0.42,0.34-0.77,0.77-0.77c0.42,0,0.77,0.34,0.77,0.77
				v8.81C28.72,35.65,28.38,35.99,27.96,35.99z"/>
		</g>
		<g>
			<path class="st2" d="M27.96,36.19c-0.19,0-0.38-0.07-0.53-0.21l-3.06-2.89c-0.31-0.29-0.32-0.78-0.03-1.09
				c0.29-0.31,0.78-0.32,1.09-0.03l2.53,2.39l2.53-2.39c0.31-0.29,0.79-0.28,1.09,0.03c0.29,0.31,0.28,0.79-0.03,1.09l-3.06,2.89
				C28.34,36.12,28.15,36.19,27.96,36.19z"/>
		</g>
	</g>
	<g>
		<path class="st2" d="M40.39,39.95H15.61c-0.42,0-0.77-0.34-0.77-0.77c0-0.42,0.34-0.77,0.77-0.77h24.79
			c0.42,0,0.77,0.34,0.77,0.77C41.16,39.6,40.82,39.95,40.39,39.95z"/>
	</g>
	<g>
		<path class="st2" d="M40.39,39.95c-0.42,0-0.77-0.34-0.77-0.77c0-0.42,0.34-0.77,0.77-0.77c0.82,0,1.57-0.38,2.06-1.04
			c0.49-0.66,0.63-1.49,0.39-2.28L38.06,19.4c-0.33-1.09-1.32-1.82-2.45-1.82H20.4c-1.14,0-2.12,0.73-2.45,1.82L13.15,35.1
			c-0.24,0.79-0.1,1.62,0.39,2.28c0.49,0.66,1.24,1.04,2.06,1.04c0.42,0,0.77,0.34,0.77,0.77c0,0.42-0.34,0.77-0.77,0.77
			c-1.31,0-2.52-0.61-3.3-1.66c-0.78-1.06-1.01-2.38-0.63-3.64l4.79-15.69c0.53-1.74,2.11-2.9,3.92-2.9h15.2
			c1.82,0,3.39,1.17,3.92,2.9l4.79,15.69c0.38,1.26,0.16,2.58-0.63,3.64C42.91,39.34,41.71,39.95,40.39,39.95z"/>
	</g>
</g>
</svg>
