<?xml version="1.0" encoding="utf-8"?>
<!-- Generator: Adobe Illustrator 24.0.2, SVG Export Plug-In . SVG Version: 6.00 Build 0)  -->
<svg version="1.1" id="Capa_1" xmlns="http://www.w3.org/2000/svg" xmlns:xlink="http://www.w3.org/1999/xlink" x="0px" y="0px"
	 viewBox="0 0 56 56" style="enable-background:new 0 0 56 56;" xml:space="preserve">
<style type="text/css">
	.st0{fill:#32FFD2;}
	.st1{fill:none;stroke:#3F19F9;stroke-width:4.5;stroke-linecap:round;stroke-linejoin:round;stroke-miterlimit:10;}
	.st2{fill:#3F19F9;}
</style>
<g>
	<g>
		<path class="st0" d="M15.3,37.36c-2.23,0-3.83-2.16-3.18-4.3l4.78-15.65c0.43-1.4,1.72-2.35,3.18-2.35h15.16
			c1.46,0,2.75,0.96,3.18,2.35l4.78,15.65c0.65,2.14-0.95,4.3-3.18,4.3"/>
	</g>
	<g>
		<g>
			<path class="st1" d="M27.62,28.04"/>
		</g>
		<g>
			<path class="st2" d="M27.62,34.01c-0.42,0-0.77-0.34-0.77-0.77v-7.42c0-0.42,0.34-0.77,0.77-0.77c0.42,0,0.77,0.34,0.77,0.77
				v7.42C28.38,33.67,28.04,34.01,27.62,34.01z"/>
		</g>
		<g>
			<path class="st2" d="M27.62,34.21c-0.19,0-0.38-0.07-0.53-0.21l-3.05-2.89c-0.31-0.29-0.32-0.78-0.03-1.08
				c0.29-0.31,0.78-0.32,1.08-0.03l2.52,2.39L30.14,30c0.31-0.29,0.79-0.28,1.08,0.03c0.29,0.31,0.28,0.79-0.03,1.08L28.14,34
				C28,34.14,27.81,34.21,27.62,34.21z"/>
		</g>
	</g>
	<g>
		<path class="st2" d="M40.02,37.96H15.3c-0.42,0-0.77-0.34-0.77-0.77c0-0.42,0.34-0.77,0.77-0.77h24.72c0.42,0,0.77,0.34,0.77,0.77
			C40.79,37.62,40.44,37.96,40.02,37.96z"/>
	</g>
	<g>
		<path class="st2" d="M40.02,37.96c-0.42,0-0.77-0.34-0.77-0.77c0-0.42,0.34-0.77,0.77-0.77c0.82,0,1.57-0.38,2.06-1.04
			c0.49-0.66,0.63-1.49,0.39-2.27l-4.78-15.65c-0.33-1.08-1.32-1.81-2.45-1.81H20.08c-1.13,0-2.12,0.73-2.45,1.81l-4.78,15.65
			c-0.24,0.78-0.1,1.61,0.39,2.27c0.49,0.66,1.24,1.04,2.06,1.04c0.42,0,0.77,0.34,0.77,0.77c0,0.42-0.34,0.77-0.77,0.77
			c-1.31,0-2.51-0.6-3.29-1.66c-0.78-1.05-1.01-2.38-0.62-3.63l4.78-15.65c0.53-1.73,2.1-2.9,3.91-2.9h15.16
			c1.81,0,3.38,1.16,3.91,2.9l4.78,15.65c0.38,1.25,0.16,2.58-0.62,3.63C42.53,37.36,41.33,37.96,40.02,37.96z"/>
	</g>
	<g>
		<path class="st2" d="M44.17,41.88H11.83c-0.42,0-0.77-0.34-0.77-0.77c0-0.42,0.34-0.77,0.77-0.77h32.35
			c0.42,0,0.77,0.34,0.77,0.77C44.94,41.53,44.6,41.88,44.17,41.88z"/>
	</g>
</g>
</svg>
