<?xml version="1.0" encoding="utf-8"?>
<!-- Generator: Adobe Illustrator 24.0.2, SVG Export Plug-In . SVG Version: 6.00 Build 0)  -->
<svg version="1.1" id="Capa_1" xmlns="http://www.w3.org/2000/svg" xmlns:xlink="http://www.w3.org/1999/xlink" x="0px" y="0px"
	 viewBox="0 0 56 56" style="enable-background:new 0 0 56 56;" xml:space="preserve">
<style type="text/css">
	.st0{fill:none;stroke:#3F19F9;stroke-width:4.5;stroke-linecap:round;stroke-linejoin:round;stroke-miterlimit:10;}
	.st1{fill:#3F19F9;}
</style>
<g>
	<g>
		<g>
			<path class="st0" d="M28.12,21.86"/>
		</g>
		<g>
			<path class="st1" d="M28.12,24.15c-0.4,0-0.72-0.32-0.72-0.72V12.29c0-0.4,0.32-0.72,0.72-0.72c0.4,0,0.72,0.32,0.72,0.72v11.14
				C28.84,23.83,28.52,24.15,28.12,24.15z"/>
		</g>
		<g>
			<path class="st1" d="M33.72,17.95c-0.18,0-0.36-0.07-0.49-0.2l-5.1-4.84l-5.1,4.84c-0.29,0.27-0.74,0.26-1.02-0.03
				c-0.27-0.29-0.26-0.74,0.03-1.02l5.6-5.3c0.28-0.26,0.71-0.26,0.99,0l5.6,5.3c0.29,0.27,0.3,0.73,0.03,1.02
				C34.1,17.87,33.91,17.95,33.72,17.95z"/>
		</g>
	</g>
	<g>
		<path class="st1" d="M37.28,24.95H18.72c-0.4,0-0.72-0.32-0.72-0.72c0-0.4,0.32-0.72,0.72-0.72h18.56c0.4,0,0.72,0.32,0.72,0.72
			C38,24.63,37.68,24.95,37.28,24.95z"/>
	</g>
	<g>
		<g>
			<path class="st0" d="M28.12,36.22"/>
		</g>
		<g>
			<path class="st1" d="M28.12,44.47c-0.4,0-0.72-0.32-0.72-0.72V32.63c0-0.4,0.32-0.72,0.72-0.72c0.4,0,0.72,0.32,0.72,0.72v11.12
				C28.84,44.15,28.52,44.47,28.12,44.47z"/>
		</g>
		<g>
			<path class="st1" d="M28.12,44.86c-0.18,0-0.37-0.07-0.51-0.21l-5.6-5.6c-0.28-0.28-0.28-0.74,0-1.02c0.28-0.28,0.74-0.28,1.02,0
				l5.09,5.09l5.09-5.09c0.28-0.28,0.74-0.28,1.02,0c0.28,0.28,0.28,0.74,0,1.02l-5.6,5.6C28.49,44.79,28.3,44.86,28.12,44.86z"/>
		</g>
	</g>
	<g>
		<path class="st1" d="M37.28,32.87H18.72c-0.4,0-0.72-0.32-0.72-0.72c0-0.4,0.32-0.72,0.72-0.72h18.56c0.4,0,0.72,0.32,0.72,0.72
			C38,32.55,37.68,32.87,37.28,32.87z"/>
	</g>
</g>
</svg>
