<?xml version="1.0" encoding="utf-8"?>
<!-- Generator: Adobe Illustrator 24.1.1, SVG Export Plug-In . SVG Version: 6.00 Build 0)  -->
<svg version="1.1" id="Capa_1" xmlns="http://www.w3.org/2000/svg" xmlns:xlink="http://www.w3.org/1999/xlink" x="0px" y="0px"
	 viewBox="0 0 200 200" style="enable-background:new 0 0 200 200;" xml:space="preserve">
<style type="text/css">
	.st0{fill:#32FFD2;}
	.st1{fill:#3F19F9;}
</style>
<g>
	<path class="st0" d="M118,176.8l-35.9,0.8c0,0,0.9,19.1,18,19.1C100,196.7,115.8,197.4,118,176.8z"/>
	<g>
		<path class="st1" d="M100,200c-0.8,0-0.8,0-1.6,0c-12-0.8-20-11.2-19.2-22.4v-2.4h41.6v2.4c0,0.8,0,2.4,0,3.2
			C120,191.2,111.2,200,100,200z M84.8,180c0.8,7.2,6.4,13.6,14.4,13.6c8.8,0.8,16-5.6,16.8-13.6H84.8z M185.6,171.2H14.4v-13.6
			l19.2-19.2v-52c0-29.6,20-56,48.8-64v-4.8C82.4,8,90.4,0,100,0s17.6,8,17.6,17.6v4.8c28.8,8,48.8,33.6,48.8,64v52l19.2,19.2
			C185.6,157.6,185.6,171.2,185.6,171.2z M20,165.6h159.2V160L160,140V85.6c0-28-19.2-52-46.4-58.4l-1.6-0.8v-8.8
			c0-6.4-5.6-12-12-12s-12,5.6-12,12v8.8l-2.4,0.8C58.4,33.6,40,57.6,40,85.6V140l-20,20V165.6z"/>
	</g>
</g>
</svg>
