<?xml version="1.0" encoding="utf-8"?>
<!-- Generator: Adobe Illustrator 24.0.2, SVG Export Plug-In . SVG Version: 6.00 Build 0)  -->
<svg version="1.1" id="Capa_1" xmlns="http://www.w3.org/2000/svg" xmlns:xlink="http://www.w3.org/1999/xlink" x="0px" y="0px"
	 viewBox="0 0 56 56" style="enable-background:new 0 0 56 56;" xml:space="preserve">
<style type="text/css">
	.st0{fill:#32FFD2;}
	.st1{fill:#3F19F9;}
</style>
<g>
	<g>
		<g>
			<g>
				<path class="st0" d="M26.06,20.59h-3.64v-2.74c0-0.52,0.42-0.94,0.94-0.94h1.76c0.52,0,0.94,0.42,0.94,0.94V20.59z"/>
			</g>
			<g>
				<path class="st0" d="M33.58,20.59h-3.64v-2.74c0-0.52,0.42-0.94,0.94-0.94h1.76c0.52,0,0.94,0.42,0.94,0.94V20.59z"/>
			</g>
		</g>
		<g>
			<g>
				<path class="st0" d="M26.06,29.32h-3.64v-2.85c0-0.52,0.42-0.94,0.94-0.94h1.76c0.52,0,0.94,0.42,0.94,0.94V29.32z"/>
			</g>
			<g>
				<path class="st0" d="M33.58,28.96h-3.64v-2.48c0-0.52,0.42-0.94,0.94-0.94h1.76c0.52,0,0.94,0.42,0.94,0.94V28.96z"/>
			</g>
		</g>
	</g>
	<g>
		<path class="st1" d="M42.83,42.9h-3.97V14.42c0-1.47-1.2-2.67-2.67-2.67H19.81c-1.47,0-2.67,1.2-2.67,2.67V42.9h-3.97
			c-0.37,0-0.67,0.3-0.67,0.67s0.3,0.67,0.67,0.67h29.65c0.37,0,0.67-0.3,0.67-0.67S43.2,42.9,42.83,42.9z M18.49,14.42
			c0-0.73,0.59-1.32,1.32-1.32h16.38c0.73,0,1.32,0.59,1.32,1.32V42.9h-6.59v-6.31c0-1.06-0.93-1.92-2.08-1.92h-1.68
			c-1.15,0-2.08,0.86-2.08,1.92v6.31h-6.59V14.42z M29.57,42.9h-3.14v-6.31c0-0.31,0.34-0.58,0.73-0.58h1.68
			c0.4,0,0.73,0.26,0.73,0.58V42.9z"/>
		<path class="st1" d="M23.36,23.8h1.76c0.89,0,1.61-0.72,1.61-1.61v-4.33c0-0.89-0.72-1.61-1.61-1.61h-1.76
			c-0.89,0-1.61,0.72-1.61,1.61v4.33C21.74,23.08,22.47,23.8,23.36,23.8z M25.12,22.45h-1.76c-0.15,0-0.26-0.12-0.26-0.26v-1.22
			h2.29v1.22C25.38,22.33,25.27,22.45,25.12,22.45z M23.36,17.59h1.76c0.15,0,0.26,0.12,0.26,0.26v1.76h-2.29v-1.76
			C23.09,17.71,23.21,17.59,23.36,17.59z"/>
		<path class="st1" d="M30.88,23.8h1.76c0.89,0,1.61-0.72,1.61-1.61v-4.33c0-0.89-0.72-1.61-1.61-1.61h-1.76
			c-0.89,0-1.61,0.72-1.61,1.61v4.33C29.27,23.08,29.99,23.8,30.88,23.8z M32.64,22.45h-1.76c-0.15,0-0.26-0.12-0.26-0.26v-1.26
			h2.29v1.26C32.91,22.33,32.79,22.45,32.64,22.45z M30.88,17.59h1.76c0.15,0,0.26,0.12,0.26,0.26v1.72h-2.29v-1.72
			C30.62,17.71,30.74,17.59,30.88,17.59z"/>
		<path class="st1" d="M25.12,32.42c0.89,0,1.61-0.72,1.61-1.61v-4.33c0-0.89-0.72-1.61-1.61-1.61h-1.76
			c-0.89,0-1.61,0.72-1.61,1.61v4.33c0,0.89,0.72,1.61,1.61,1.61H25.12z M23.36,26.21h1.76c0.15,0,0.26,0.12,0.26,0.26v2.32h-2.29
			v-2.32C23.09,26.33,23.21,26.21,23.36,26.21z M23.09,30.81v-0.66h2.29v0.66c0,0.15-0.12,0.26-0.26,0.26h-1.76
			C23.21,31.07,23.09,30.95,23.09,30.81z"/>
		<path class="st1" d="M30.88,32.42h1.76c0.89,0,1.61-0.72,1.61-1.61v-4.33c0-0.89-0.72-1.61-1.61-1.61h-1.76
			c-0.89,0-1.61,0.72-1.61,1.61v4.33C29.27,31.69,29.99,32.42,30.88,32.42z M32.64,31.07h-1.76c-0.15,0-0.26-0.12-0.26-0.26v-1.41
			h2.29v1.41C32.91,30.95,32.79,31.07,32.64,31.07z M30.88,26.21h1.76c0.15,0,0.26,0.12,0.26,0.26v1.57h-2.29v-1.57
			C30.62,26.33,30.74,26.21,30.88,26.21z"/>
	</g>
</g>
</svg>
