<?xml version="1.0" encoding="utf-8"?>
<!-- Generator: Adobe Illustrator 24.0.2, SVG Export Plug-In . SVG Version: 6.00 Build 0)  -->
<svg version="1.1" id="Capa_1" xmlns="http://www.w3.org/2000/svg" xmlns:xlink="http://www.w3.org/1999/xlink" x="0px" y="0px"
	 viewBox="0 0 56 56" style="enable-background:new 0 0 56 56;" xml:space="preserve">
<style type="text/css">
	.st0{fill:#3F19F9;}
	.st1{fill:#32FFD2;}
</style>
<g>
	<g>
		<path class="st0" d="M41.98,14.22H11.59v-1.17c0-2.19,1.78-3.96,3.96-3.96h22.47c2.19,0,3.96,1.78,3.96,3.96V14.22z M12.8,13.01
			h27.96c-0.02-1.49-1.25-2.7-2.75-2.7H15.55C14.05,10.31,12.83,11.51,12.8,13.01z"/>
	</g>
	<g>
		<path class="st1" d="M42.45,31.71H13.55c-1.34,0-2.43-1.09-2.43-2.43v0c0-1.34,1.09-2.43,2.43-2.43h28.91
			c1.34,0,2.43,1.09,2.43,2.43v0C44.88,30.63,43.8,31.71,42.45,31.71z"/>
	</g>
	<g>
		<path class="st0" d="M41.37,46.91H14.63c-0.34,0-0.61-0.27-0.61-0.61V13.88c0-0.34,0.27-0.61,0.61-0.61s0.61,0.27,0.61,0.61v31.81
			h25.53V21.72c0-0.34,0.27-0.61,0.61-0.61c0.34,0,0.61,0.27,0.61,0.61V46.3C41.98,46.64,41.71,46.91,41.37,46.91z"/>
	</g>
	<g>
		<path class="st0" d="M42.45,32.32H13.55c-1.68,0-3.04-1.36-3.04-3.04s1.36-3.04,3.04-3.04h28.91c1.68,0,3.04,1.36,3.04,3.04
			S44.13,32.32,42.45,32.32z M13.55,27.46c-1.01,0-1.82,0.82-1.82,1.82c0,1.01,0.82,1.82,1.82,1.82h28.91
			c1.01,0,1.82-0.82,1.82-1.82c0-1.01-0.82-1.82-1.82-1.82H13.55z"/>
	</g>
	<g>
		<rect x="33.23" y="13.82" class="st0" width="1.22" height="13.3"/>
	</g>
	<g>
		<path class="st0" d="M43.76,21.76h-9.49c-0.34,0-0.61-0.27-0.61-0.61c0-0.34,0.27-0.61,0.61-0.61h9.49c0.34,0,0.61,0.27,0.61,0.61
			C44.37,21.49,44.1,21.76,43.76,21.76z"/>
	</g>
	<g>
		<path class="st0" d="M36.1,46.78c-0.34,0-0.61-0.27-0.61-0.61v-7.16c0-1.23-1-2.23-2.23-2.23s-2.23,1-2.23,2.23v7.16
			c0,0.34-0.27,0.61-0.61,0.61s-0.61-0.27-0.61-0.61v-7.16c0-1.9,1.55-3.44,3.44-3.44s3.44,1.55,3.44,3.44v7.16
			C36.71,46.5,36.44,46.78,36.1,46.78z"/>
	</g>
	<g>
		<path class="st1" d="M25.41,41.17h-5.36c-0.76,0-1.37-0.61-1.37-1.37v-2.12c0-0.76,0.61-1.37,1.37-1.37h5.36
			c0.76,0,1.37,0.61,1.37,1.37v2.12C26.78,40.56,26.17,41.17,25.41,41.17z"/>
	</g>
	<g>
		<path class="st0" d="M25.41,41.78h-5.36c-1.09,0-1.98-0.89-1.98-1.98v-2.12c0-1.09,0.89-1.98,1.98-1.98h5.36
			c1.09,0,1.98,0.89,1.98,1.98v2.12C27.39,40.89,26.5,41.78,25.41,41.78z M20.05,36.92c-0.42,0-0.76,0.34-0.76,0.76v2.12
			c0,0.42,0.34,0.76,0.76,0.76h5.36c0.42,0,0.76-0.34,0.76-0.76v-2.12c0-0.42-0.34-0.76-0.76-0.76H20.05z"/>
	</g>
	<g>
		<path class="st0" d="M28.15,23.14h-7.87c-1.22,0-2.21-0.99-2.21-2.21v-1.66c0-1.22,0.99-2.21,2.21-2.21h7.87
			c1.22,0,2.21,0.99,2.21,2.21v1.66C30.36,22.15,29.37,23.14,28.15,23.14z M20.28,18.27c-0.55,0-1,0.45-1,1v1.66c0,0.55,0.45,1,1,1
			h7.87c0.55,0,1-0.45,1-1v-1.66c0-0.55-0.45-1-1-1H20.28z"/>
	</g>
</g>
</svg>
