<?xml version="1.0" encoding="utf-8"?>
<!-- Generator: Adobe Illustrator 24.0.2, SVG Export Plug-In . SVG Version: 6.00 Build 0)  -->
<svg version="1.1" id="Capa_1" xmlns="http://www.w3.org/2000/svg" xmlns:xlink="http://www.w3.org/1999/xlink" x="0px" y="0px"
	 viewBox="0 0 56 56" style="enable-background:new 0 0 56 56;" xml:space="preserve">
<style type="text/css">
	.st0{fill:#32FFD2;}
	.st1{fill:#3F19F9;}
</style>
<g>
	<g>
		<path class="st0" d="M37.6,36.57H18.25c-1.42,0-2.57-1.15-2.57-2.57v0c0-1.42,1.15-2.57,2.57-2.57H37.6
			c1.42,0,2.57,1.15,2.57,2.57v0C40.17,35.42,39.02,36.57,37.6,36.57z"/>
	</g>
	<path class="st1" d="M41,29.48V23.4c0-1.45-1.18-2.63-2.63-2.63h-0.94c-1.2,0-2.21,0.82-2.52,1.92l-0.69-9.4
		c-0.12-2.08-1.85-3.7-3.93-3.7h-4.75c-2.08,0-3.8,1.63-3.93,3.69l-0.66,9.05c-0.41-0.91-1.33-1.56-2.39-1.56h-0.94
		c-1.45,0-2.63,1.18-2.63,2.63v6.08c0,0.87,0.43,1.63,1.08,2.11C15.42,32.19,15,33.05,15,34c0,1.79,1.46,3.25,3.25,3.25h7
		c-0.03,0.12-0.05,0.25-0.05,0.38v2.71c0,0.96,0.78,1.75,1.75,1.75h0.3v0.38l-6.23,2.54c-0.35,0.14-0.51,0.54-0.37,0.89
		c0.14,0.35,0.54,0.51,0.89,0.37l5.71-2.33v1.4c0,0.38,0.3,0.68,0.68,0.68c0.38,0,0.68-0.3,0.68-0.68v-1.4l5.71,2.33
		c0.08,0.03,0.17,0.05,0.26,0.05c0.27,0,0.52-0.16,0.63-0.42c0.14-0.35-0.02-0.74-0.37-0.89l-6.23-2.54v-0.38h0.3
		c0.96,0,1.74-0.78,1.74-1.75v-2.71c0-0.13-0.02-0.26-0.05-0.38h7c1.79,0,3.25-1.46,3.25-3.25c0-0.92-0.39-1.75-1.01-2.34
		C40.54,31.19,41,30.39,41,29.48z M34.8,26.24v3.24c0,0.46,0.13,0.89,0.34,1.27H28.6v-1.97h2.52c1.09,0,2.11-0.44,2.86-1.23
		C34.35,27.17,34.62,26.72,34.8,26.24z M22.98,13.37c0.08-1.36,1.21-2.42,2.57-2.42h4.75c1.36,0,2.49,1.06,2.57,2.43l0.83,11.32
		c0.04,0.71-0.21,1.4-0.7,1.92c-0.49,0.52-1.16,0.81-1.87,0.81h-6.4c-0.72,0-1.38-0.29-1.87-0.81c-0.49-0.52-0.74-1.2-0.7-1.91
		L22.98,13.37z M21.86,27.55c0.75,0.8,1.77,1.23,2.86,1.23h2.52v1.97h-6.39c0.21-0.38,0.34-0.8,0.34-1.27v-2.93
		C21.37,26.91,21.58,27.25,21.86,27.55z M17.63,30.75c-0.7,0-1.27-0.57-1.27-1.27V23.4c0-0.7,0.57-1.27,1.27-1.27h0.94
		c0.7,0,1.27,0.57,1.27,1.27v6.08c0,0.7-0.57,1.27-1.27,1.27h-0.32H17.63z M26.95,40.73c-0.21,0-0.38-0.17-0.38-0.38v-2.71
		c0-0.21,0.17-0.38,0.38-0.38h0.3v3.48H26.95z M29.28,37.64v2.71c0,0.21-0.17,0.38-0.38,0.38h-0.3v-3.48h0.3
		C29.11,37.25,29.28,37.42,29.28,37.64z M37.6,35.89h-8.7h-1.95h-8.7c-1.04,0-1.89-0.85-1.89-1.89c0-1.04,0.85-1.89,1.89-1.89h0.32
		h18.86h0.17c1.04,0,1.89,0.85,1.89,1.89C39.49,35.04,38.64,35.89,37.6,35.89z M37.43,30.75c-0.7,0-1.27-0.57-1.27-1.27V23.4
		c0-0.7,0.57-1.27,1.27-1.27h0.94c0.7,0,1.27,0.57,1.27,1.27v6.08c0,0.7-0.57,1.27-1.27,1.27H37.6H37.43z"/>
</g>
</svg>
