<?xml version="1.0" encoding="utf-8"?>
<!-- Generator: Adobe Illustrator 24.0.2, SVG Export Plug-In . SVG Version: 6.00 Build 0)  -->
<svg version="1.1" id="Capa_1" xmlns="http://www.w3.org/2000/svg" xmlns:xlink="http://www.w3.org/1999/xlink" x="0px" y="0px"
	 viewBox="0 0 56 56" style="enable-background:new 0 0 56 56;" xml:space="preserve">
<style type="text/css">
	.st0{fill:#32FFD2;}
	.st1{fill:#3F19F9;}
</style>
<g>
	<g>
		<path class="st0" d="M30.51,26.37h-5.02c-0.56,0-1-0.45-1-1v0c0-0.56,0.45-1,1-1h5.02c0.56,0,1,0.45,1,1v0
			C31.52,25.92,31.07,26.37,30.51,26.37z"/>
	</g>
	<g>
		<path class="st1" d="M41.23,32.48c-0.36-1.27-1.54-2.16-2.86-2.16h-0.93l-0.29-3.16c-0.27-2.92-2.68-5.13-5.62-5.13h-7.06
			c-2.94,0-5.35,2.21-5.62,5.13l-0.29,3.16h-0.93c-1.32,0-2.5,0.89-2.86,2.16l-1.13,3.97c-0.26,0.91-0.08,1.86,0.49,2.61
			c0.57,0.75,1.43,1.18,2.38,1.18h1.26v0.52c0,1.1,0.9,2,2,2h1.28c1.1,0,2-0.9,2-2v-0.52h9.8v0.52c0,1.1,0.9,2,2,2h1.28
			c1.1,0,2-0.9,2-2v-0.52h1.39c0.94,0,1.81-0.43,2.38-1.18c0.57-0.75,0.74-1.7,0.49-2.61L41.23,32.48z M19.98,27.27
			c0.21-2.34,2.14-4.1,4.49-4.1h7.06c2.35,0,4.28,1.76,4.49,4.1l0.28,3.06H19.7L19.98,27.27z M21.91,40.76
			c0,0.48-0.39,0.87-0.87,0.87h-1.28c-0.48,0-0.87-0.39-0.87-0.87v-0.52h3.01V40.76z M36.98,40.76c0,0.48-0.39,0.87-0.87,0.87h-1.28
			c-0.48,0-0.87-0.39-0.87-0.87v-0.52h3.01V40.76z M40.97,38.38c-0.35,0.47-0.89,0.73-1.47,0.73h-23c-0.58,0-1.12-0.27-1.47-0.73
			c-0.35-0.47-0.46-1.06-0.3-1.62l1.13-3.97c0.23-0.79,0.96-1.34,1.78-1.34h0.83h19.08h0.83c0.82,0,1.55,0.55,1.78,1.34l1.13,3.97
			C41.44,37.33,41.33,37.92,40.97,38.38z"/>
		<path class="st1" d="M22.3,33.34h-1.17c-0.89,0-1.61,0.72-1.61,1.62v0.66c0,0.89,0.72,1.62,1.61,1.62h1.17
			c0.89,0,1.61-0.72,1.61-1.62v-0.66C23.92,34.06,23.19,33.34,22.3,33.34z M22.79,35.62c0,0.27-0.22,0.48-0.48,0.48h-1.17
			c-0.27,0-0.48-0.22-0.48-0.48v-0.66c0-0.27,0.22-0.48,0.48-0.48h1.17c0.27,0,0.48,0.22,0.48,0.48V35.62z"/>
		<path class="st1" d="M34.86,33.34H33.7c-0.89,0-1.62,0.72-1.62,1.62v0.66c0,0.89,0.72,1.62,1.62,1.62h1.17
			c0.89,0,1.61-0.72,1.61-1.62v-0.66C36.48,34.06,35.75,33.34,34.86,33.34z M35.35,35.62c0,0.27-0.22,0.48-0.48,0.48H33.7
			c-0.27,0-0.48-0.22-0.48-0.48v-0.66c0-0.27,0.22-0.48,0.48-0.48h1.17c0.27,0,0.48,0.22,0.48,0.48V35.62z"/>
		<path class="st1" d="M42.17,17.81l-13.95-4.57h-0.43l-13.95,4.57c-0.65,0.21-1.09,0.82-1.09,1.51v0.62c0,0.51,0.24,0.98,0.66,1.28
			c0.28,0.2,0.6,0.3,0.93,0.3c0.17,0,0.33-0.03,0.5-0.08l13.15-4.31h0.07l13.15,4.31c0.49,0.16,1.01,0.08,1.42-0.22
			c0.42-0.3,0.66-0.77,0.66-1.28v-0.62C43.26,18.63,42.82,18.03,42.17,17.81z M42.13,19.93c0,0.15-0.07,0.28-0.19,0.37
			c-0.12,0.09-0.27,0.11-0.41,0.06L28.22,16h-0.43l-13.32,4.36c-0.14,0.05-0.29,0.02-0.41-0.06c-0.12-0.09-0.19-0.22-0.19-0.37
			v-0.62c0-0.2,0.13-0.37,0.31-0.43l13.78-4.52h0.07l13.78,4.52c0.19,0.06,0.31,0.24,0.31,0.43V19.93z"/>
	</g>
</g>
</svg>
