<?xml version="1.0" encoding="utf-8"?>
<!-- Generator: Adobe Illustrator 24.0.2, SVG Export Plug-In . SVG Version: 6.00 Build 0)  -->
<svg version="1.1" id="Capa_1" xmlns="http://www.w3.org/2000/svg" xmlns:xlink="http://www.w3.org/1999/xlink" x="0px" y="0px"
	 viewBox="0 0 56 56" style="enable-background:new 0 0 56 56;" xml:space="preserve">
<style type="text/css">
	.st0{fill:#32FFD2;}
	.st1{fill:#3F19F9;}
</style>
<g>
	<g>
		<polygon class="st0" points="40.52,16.13 26.65,29.43 28.43,32.08 41.82,18.95 		"/>
	</g>
	<g>
		<path class="st1" d="M36.26,29.46c-0.37,0-0.68,0.3-0.68,0.68v7.92c0,1.96-1.59,3.55-3.55,3.55H18.4c-1.96,0-3.55-1.59-3.55-3.55
			V17.95c0-1.96,1.59-3.55,3.55-3.55h13.65c0.37,0,0.68-0.3,0.68-0.68c0-0.37-0.3-0.68-0.68-0.68H18.4c-2.7,0-4.9,2.2-4.9,4.9v20.11
			c0,2.7,2.2,4.9,4.9,4.9h13.65c2.7,0,4.9-2.2,4.9-4.9v-7.92C36.94,29.76,36.64,29.46,36.26,29.46z"/>
		<path class="st1" d="M41.87,16.88l-2.64-2.73c-0.42-0.43-0.97-0.67-1.57-0.68c-0.6-0.01-1.16,0.21-1.59,0.63L22.63,27.13
			c-0.32,0.31-0.54,0.71-0.63,1.15l-0.69,3.32c-0.15,0.73,0.07,1.48,0.58,2.01c0.43,0.44,1,0.68,1.6,0.68
			c0.13,0,0.26-0.01,0.39-0.03l3.34-0.59c0.44-0.08,0.84-0.28,1.17-0.6l13.43-13.02c0.43-0.42,0.67-0.97,0.68-1.57
			C42.5,17.87,42.28,17.31,41.87,16.88z M37,15.08c0.17-0.16,0.38-0.25,0.61-0.25c0,0,0.01,0,0.01,0c0.24,0,0.46,0.1,0.62,0.27
			l0.88,0.9l-12.6,12.12c-0.51-0.45-1.13-0.82-1.88-1.05L37,15.08z M26.99,32.32C26.99,32.32,26.99,32.32,26.99,32.32l-3.34,0.59
			c-0.29,0.05-0.58-0.04-0.79-0.25c-0.21-0.21-0.29-0.5-0.23-0.8l0.69-3.32c0.03-0.13,0.09-0.25,0.17-0.35
			c2.95,0.41,3.61,3.17,3.75,4.04C27.17,32.28,27.08,32.31,26.99,32.32z M40.87,19.07L28.4,31.16c-0.19-0.66-0.5-1.38-0.97-2.05
			l12.64-12.15l0.82,0.85c0.16,0.17,0.25,0.39,0.25,0.63C41.14,18.69,41.04,18.91,40.87,19.07z"/>
	</g>
</g>
</svg>
