<?xml version="1.0" encoding="utf-8"?>
<!-- Generator: Adobe Illustrator 24.0.2, SVG Export Plug-In . SVG Version: 6.00 Build 0)  -->
<svg version="1.1" id="Capa_1" xmlns="http://www.w3.org/2000/svg" xmlns:xlink="http://www.w3.org/1999/xlink" x="0px" y="0px"
	 viewBox="0 0 56 56" style="enable-background:new 0 0 56 56;" xml:space="preserve">
<style type="text/css">
	.st0{fill:#32FFD2;}
	.st1{fill:#3F19F9;}
</style>
<g>
	<g>
		<g>
			<g>
				<path class="st0" d="M20.51,28.56v5.39c0,0.83-0.67,1.5-1.5,1.5h0c-0.83,0-1.5-0.67-1.5-1.5v-5.39"/>
			</g>
			<g>
				<path class="st1" d="M24.22,43.91H13.81c-1.55,0-2.81-1.26-2.81-2.81V30.69c0-1.55,1.26-2.81,2.81-2.81h10.41
					c1.55,0,2.81,1.26,2.81,2.81v10.41C27.03,42.65,25.77,43.91,24.22,43.91z M13.81,29.23c-0.8,0-1.46,0.65-1.46,1.46v10.41
					c0,0.8,0.65,1.46,1.46,1.46h10.41c0.8,0,1.46-0.65,1.46-1.46V30.69c0-0.8-0.65-1.46-1.46-1.46H13.81z"/>
			</g>
			<g>
				<path class="st1" d="M19.01,36.12c-1.2,0-2.17-0.97-2.17-2.17v-5.39h1.35v5.39c0,0.45,0.37,0.82,0.82,0.82
					c0.45,0,0.82-0.37,0.82-0.82v-5.39h1.35v5.39C21.19,35.15,20.21,36.12,19.01,36.12z"/>
			</g>
		</g>
		<g>
			<g>
				<path class="st0" d="M38.48,28.56v5.39c0,0.83-0.67,1.5-1.5,1.5h0c-0.83,0-1.5-0.67-1.5-1.5v-5.39"/>
			</g>
			<g>
				<path class="st1" d="M42.19,43.91H31.78c-1.55,0-2.81-1.26-2.81-2.81V30.69c0-1.55,1.26-2.81,2.81-2.81h10.41
					c1.55,0,2.81,1.26,2.81,2.81v10.41C45,42.65,43.74,43.91,42.19,43.91z M31.78,29.23c-0.8,0-1.46,0.65-1.46,1.46v10.41
					c0,0.8,0.65,1.46,1.46,1.46h10.41c0.8,0,1.46-0.65,1.46-1.46V30.69c0-0.8-0.65-1.46-1.46-1.46H31.78z"/>
			</g>
			<g>
				<path class="st1" d="M36.99,36.12c-1.2,0-2.17-0.97-2.17-2.17v-5.39h1.35v5.39c0,0.45,0.37,0.82,0.82,0.82
					c0.45,0,0.82-0.37,0.82-0.82v-5.39h1.35v5.39C39.16,35.15,38.18,36.12,36.99,36.12z"/>
			</g>
		</g>
	</g>
	<g>
		<g>
			<g>
				<path class="st0" d="M37.17,12.76v4.59c0,0.7-0.57,1.28-1.28,1.28h0c-0.7,0-1.28-0.57-1.28-1.28v-4.59"/>
			</g>
			<g>
				<path class="st1" d="M40.33,25.94h-8.87c-1.37,0-2.49-1.12-2.49-2.49v-8.87c0-1.37,1.12-2.49,2.49-2.49h8.87
					c1.37,0,2.49,1.12,2.49,2.49v8.87C42.82,24.82,41.71,25.94,40.33,25.94z M31.46,13.44c-0.63,0-1.14,0.51-1.14,1.14v8.87
					c0,0.63,0.51,1.14,1.14,1.14h8.87c0.63,0,1.14-0.51,1.14-1.14v-8.87c0-0.63-0.51-1.14-1.14-1.14H31.46z"/>
			</g>
			<g>
				<path class="st1" d="M35.9,19.3c-1.08,0-1.95-0.87-1.95-1.95v-4.59h1.35v4.59c0,0.33,0.27,0.6,0.6,0.6s0.6-0.27,0.6-0.6v-4.59
					h1.35v4.59C37.85,18.43,36.97,19.3,35.9,19.3z"/>
			</g>
		</g>
	</g>
	<g>
		<g>
			<g>
				<path class="st0" d="M21.6,12.76v4.59c0,0.7-0.57,1.28-1.28,1.28h0c-0.7,0-1.28-0.57-1.28-1.28v-4.59"/>
			</g>
			<g>
				<path class="st1" d="M24.76,25.94h-8.87c-1.37,0-2.49-1.12-2.49-2.49v-8.87c0-1.37,1.12-2.49,2.49-2.49h8.87
					c1.37,0,2.49,1.12,2.49,2.49v8.87C27.25,24.82,26.13,25.94,24.76,25.94z M15.89,13.44c-0.63,0-1.14,0.51-1.14,1.14v8.87
					c0,0.63,0.51,1.14,1.14,1.14h8.87c0.63,0,1.14-0.51,1.14-1.14v-8.87c0-0.63-0.51-1.14-1.14-1.14H15.89z"/>
			</g>
			<g>
				<path class="st1" d="M20.32,19.3c-1.08,0-1.95-0.87-1.95-1.95v-4.59h1.35v4.59c0,0.33,0.27,0.6,0.6,0.6c0.33,0,0.6-0.27,0.6-0.6
					v-4.59h1.35v4.59C22.27,18.43,21.4,19.3,20.32,19.3z"/>
			</g>
		</g>
	</g>
</g>
</svg>
