<?xml version="1.0" encoding="utf-8"?>
<!-- Generator: Adobe Illustrator 24.0.2, SVG Export Plug-In . SVG Version: 6.00 Build 0)  -->
<svg version="1.1" id="Capa_1" xmlns="http://www.w3.org/2000/svg" xmlns:xlink="http://www.w3.org/1999/xlink" x="0px" y="0px"
	 viewBox="0 0 56 56" style="enable-background:new 0 0 56 56;" xml:space="preserve">
<style type="text/css">
	.st0{fill:#32FFD2;}
	.st1{fill:#3F19F9;}
</style>
<g>
	<g>
		<rect x="13.87" y="13.9" class="st0" width="14.17" height="14.17"/>
	</g>
	<g>
		<path class="st1" d="M42.35,12.96c-0.36,0-0.65,0.29-0.65,0.65v28.12H13.91c-0.36,0-0.65,0.29-0.65,0.65
			c0,0.36,0.29,0.65,0.65,0.65H43V13.61C43,13.25,42.71,12.96,42.35,12.96z"/>
		<path class="st1" d="M13.45,36.18c0.05,0.03,0.12,0.07,0.18,0.09c0.06,0.03,0.12,0.04,0.19,0.06c0.07,0.01,0.13,0.02,0.2,0.02
			c0.27,0,0.53-0.11,0.71-0.3c0.05-0.05,0.09-0.1,0.13-0.15c0.03-0.05,0.07-0.11,0.09-0.17c0.02-0.06,0.04-0.13,0.06-0.19
			c0.01-0.06,0.02-0.13,0.02-0.2c0-0.07-0.01-0.13-0.02-0.2c-0.01-0.06-0.03-0.13-0.06-0.19c-0.03-0.06-0.06-0.12-0.09-0.18
			c-0.04-0.05-0.08-0.11-0.13-0.15c-0.05-0.05-0.1-0.09-0.15-0.12c-0.05-0.04-0.11-0.07-0.18-0.1c-0.06-0.02-0.12-0.04-0.19-0.05
			c-0.33-0.07-0.68,0.04-0.91,0.27c-0.05,0.05-0.09,0.1-0.12,0.15c-0.04,0.05-0.07,0.12-0.1,0.18c-0.02,0.06-0.04,0.12-0.06,0.19
			C13.01,35.2,13,35.27,13,35.34c0,0.07,0.01,0.13,0.02,0.2c0.01,0.06,0.03,0.13,0.06,0.19c0.03,0.06,0.06,0.12,0.1,0.17
			c0.03,0.05,0.08,0.11,0.12,0.15C13.34,36.1,13.39,36.14,13.45,36.18z"/>
		<path class="st1" d="M29.65,36.35c0.56,0,1.01-0.45,1.01-1.01c0-0.56-0.45-1.01-1.01-1.01c-0.56,0-1.01,0.45-1.01,1.01
			C28.64,35.89,29.1,36.35,29.65,36.35z"/>
		<path class="st1" d="M23.43,35.34c0,0.56,0.45,1.01,1.01,1.01c0.56,0,1.01-0.45,1.01-1.01c0-0.56-0.45-1.01-1.01-1.01
			C23.88,34.32,23.43,34.77,23.43,35.34z"/>
		<path class="st1" d="M18.21,35.34c0,0.56,0.45,1.01,1.01,1.01c0.56,0,1.01-0.45,1.01-1.01c0-0.56-0.45-1.01-1.01-1.01
			C18.66,34.32,18.21,34.77,18.21,35.34z"/>
		<path class="st1" d="M33.93,35.72c0.03,0.06,0.05,0.12,0.09,0.17c0.04,0.05,0.08,0.11,0.12,0.15c0.05,0.05,0.1,0.09,0.16,0.13
			c0.05,0.03,0.11,0.07,0.17,0.09c0.06,0.03,0.12,0.04,0.19,0.06c0.06,0.01,0.13,0.02,0.2,0.02c0.07,0,0.13-0.01,0.2-0.02
			c0.07-0.01,0.13-0.03,0.19-0.06c0.06-0.03,0.12-0.06,0.17-0.09c0.06-0.04,0.11-0.08,0.16-0.13c0.19-0.19,0.29-0.45,0.29-0.71
			c0-0.27-0.11-0.53-0.29-0.72c-0.05-0.05-0.1-0.09-0.16-0.12c-0.05-0.04-0.11-0.07-0.17-0.1c-0.06-0.02-0.12-0.04-0.19-0.05
			c-0.13-0.03-0.26-0.03-0.39,0c-0.07,0.01-0.13,0.03-0.19,0.05c-0.06,0.03-0.12,0.06-0.17,0.1c-0.05,0.03-0.11,0.08-0.16,0.12
			c-0.05,0.05-0.09,0.1-0.12,0.15c-0.04,0.05-0.07,0.12-0.09,0.18c-0.03,0.06-0.05,0.12-0.06,0.19c-0.01,0.07-0.02,0.13-0.02,0.2
			c0,0.07,0.01,0.13,0.02,0.2C33.89,35.6,33.91,35.66,33.93,35.72z"/>
		<path class="st1" d="M34.87,25.86c0.56,0,1.01-0.45,1.01-1.02c0-0.56-0.45-1.01-1.01-1.01c-0.56,0-1.01,0.45-1.01,1.01
			C33.85,25.4,34.31,25.86,34.87,25.86z"/>
		<path class="st1" d="M34.87,20.61c0.56,0,1.01-0.45,1.01-1.01c0-0.56-0.45-1.01-1.01-1.01c-0.56,0-1.01,0.45-1.01,1.01
			C33.85,20.16,34.31,20.61,34.87,20.61z"/>
		<path class="st1" d="M34.87,31.1c0.56,0,1.01-0.45,1.01-1.01c0-0.56-0.45-1.01-1.01-1.01c-0.56,0-1.01,0.45-1.01,1.01
			C33.85,30.65,34.31,31.1,34.87,31.1z"/>
		<path class="st1" d="M33.93,14.74c0.03,0.06,0.05,0.12,0.09,0.17c0.04,0.06,0.08,0.11,0.12,0.16c0.05,0.05,0.1,0.09,0.16,0.12
			c0.05,0.04,0.11,0.07,0.17,0.09c0.06,0.03,0.12,0.05,0.19,0.06c0.06,0.01,0.13,0.02,0.2,0.02c0.27,0,0.53-0.11,0.71-0.29
			c0.05-0.05,0.09-0.1,0.13-0.16c0.04-0.05,0.07-0.11,0.09-0.17c0.03-0.06,0.05-0.12,0.06-0.19c0.01-0.07,0.02-0.13,0.02-0.2
			c0-0.07-0.01-0.13-0.02-0.2c-0.01-0.07-0.03-0.13-0.06-0.19c-0.03-0.06-0.05-0.12-0.09-0.17s-0.08-0.11-0.13-0.15
			c-0.05-0.05-0.1-0.09-0.15-0.13c-0.05-0.03-0.11-0.07-0.17-0.09c-0.06-0.03-0.12-0.04-0.19-0.06c-0.13-0.03-0.26-0.03-0.39,0
			c-0.07,0.01-0.13,0.03-0.19,0.06c-0.06,0.03-0.12,0.06-0.17,0.09c-0.05,0.04-0.11,0.08-0.16,0.13c-0.19,0.19-0.29,0.45-0.29,0.71
			c0,0.07,0.01,0.13,0.02,0.2C33.89,14.61,33.91,14.68,33.93,14.74z"/>
		<path class="st1" d="M13.22,21.26v7.46h15.47V13.25H13.22v7.92C13.21,21.2,13.21,21.23,13.22,21.26z M26.61,14.55L14.52,26.65
			v-5.17l6.92-6.92H26.61z M27.38,20.79l-6.63,6.63h-5.17l11.8-11.8V20.79z M22.59,27.42l4.79-4.79v4.79H22.59z M19.6,14.55
			l-5.08,5.08v-5.08H19.6z"/>
	</g>
</g>
</svg>
