<?xml version="1.0" encoding="utf-8"?>
<!-- Generator: Adobe Illustrator 24.0.2, SVG Export Plug-In . SVG Version: 6.00 Build 0)  -->
<svg version="1.1" id="Capa_1" xmlns="http://www.w3.org/2000/svg" xmlns:xlink="http://www.w3.org/1999/xlink" x="0px" y="0px"
	 viewBox="0 0 56 56" style="enable-background:new 0 0 56 56;" xml:space="preserve">
<style type="text/css">
	.st0{fill:#3F19F9;}
	.st1{fill:none;stroke:#3F19F9;stroke-width:4.5;stroke-linecap:round;stroke-linejoin:round;stroke-miterlimit:10;}
</style>
<g>
	<g>
		<path class="st0" d="M39.5,37.28h-8.41c-0.31,0-0.56-0.25-0.56-0.56s0.25-0.56,0.56-0.56h8.41c2.69,0,4.89-2.19,4.89-4.89
			c0-2.51-1.88-4.6-4.37-4.86c-0.16-0.02-0.3-0.1-0.39-0.22c-0.09-0.13-0.13-0.29-0.1-0.44c0.1-0.52,0.16-1.06,0.16-1.59
			c0-4.43-3.61-8.04-8.04-8.04c-3.08,0-5.93,1.8-7.26,4.58c-0.08,0.16-0.23,0.28-0.41,0.31c-0.18,0.03-0.36-0.03-0.49-0.16
			c-0.93-0.97-2.18-1.51-3.53-1.51c-2.69,0-4.89,2.19-4.89,4.89c0,0.57,0.1,1.14,0.29,1.67c0.05,0.14,0.04,0.3-0.02,0.44
			c-0.07,0.14-0.19,0.24-0.33,0.29c-2.04,0.65-3.4,2.52-3.4,4.66c0,2.69,2.19,4.89,4.89,4.89h8.16c0.31,0,0.56,0.25,0.56,0.56
			s-0.25,0.56-0.56,0.56H16.5c-3.31,0-6-2.69-6-6c0-2.44,1.45-4.59,3.66-5.52c-0.13-0.5-0.2-1.01-0.2-1.52c0-3.31,2.69-6,6-6
			c1.4,0,2.71,0.47,3.77,1.34c1.63-2.79,4.66-4.55,7.91-4.55c5.05,0,9.15,4.11,9.15,9.15c0,0.41-0.03,0.83-0.08,1.24
			c2.76,0.56,4.78,2.99,4.78,5.88C45.5,34.58,42.81,37.28,39.5,37.28z"/>
	</g>
	<g>
		<g>
			<path class="st1" d="M27.97,38.4"/>
		</g>
		<g>
			<path class="st0" d="M27.97,40.99c-0.31,0-0.56-0.25-0.56-0.56V25.65c0-0.31,0.25-0.56,0.56-0.56c0.31,0,0.56,0.25,0.56,0.56
				v14.78C28.53,40.74,28.28,40.99,27.97,40.99z"/>
		</g>
		<g>
			<path class="st0" d="M33.67,31.91c-0.14,0-0.28-0.05-0.39-0.16l-5.31-5.31l-5.31,5.31c-0.22,0.22-0.57,0.22-0.79,0
				c-0.22-0.22-0.22-0.57,0-0.79l5.7-5.7c0.22-0.22,0.57-0.22,0.79,0l5.7,5.7c0.22,0.22,0.22,0.57,0,0.79
				C33.96,31.86,33.81,31.91,33.67,31.91z"/>
		</g>
	</g>
</g>
</svg>
