<?xml version="1.0" encoding="utf-8"?>
<!-- Generator: Adobe Illustrator 24.0.2, SVG Export Plug-In . SVG Version: 6.00 Build 0)  -->
<svg version="1.1" id="Capa_1" xmlns="http://www.w3.org/2000/svg" xmlns:xlink="http://www.w3.org/1999/xlink" x="0px" y="0px"
	 viewBox="0 0 56 56" style="enable-background:new 0 0 56 56;" xml:space="preserve">
<style type="text/css">
	.st0{fill:#32FFD2;}
	.st1{fill:#3F19F9;}
</style>
<g>
	<g>
		<path class="st0" d="M31.71,24.51c0,2.09-3.78,7.29-3.78,7.29s-3.78-5.21-3.78-7.29s1.69-3.78,3.78-3.78S31.71,22.42,31.71,24.51z
			"/>
	</g>
	<g>
		<g>
			<g>
				<polyline class="st0" points="40.1,20.2 43.92,16.38 39.53,11.99 35.71,15.81 				"/>
			</g>
		</g>
		<g>
			<g>
				<polyline class="st0" points="16.23,44.08 20.05,40.26 15.65,35.86 11.83,39.69 				"/>
			</g>
		</g>
	</g>
	<g>
		<g>
			<g>
				<polyline class="st0" points="35.78,40.21 39.63,44.01 43.99,39.59 40.15,35.79 				"/>
			</g>
		</g>
		<g>
			<g>
				<polyline class="st0" points="11.76,16.47 15.61,20.27 19.97,15.85 16.13,12.06 				"/>
			</g>
		</g>
	</g>
	<g>
		<g>
			<g>
				<polyline class="st0" points="42.06,31.13 47.47,31.12 47.46,24.91 42.06,24.91 				"/>
			</g>
		</g>
		<g>
			<g>
				<polyline class="st0" points="8.3,31.16 13.7,31.15 13.69,24.94 8.29,24.94 				"/>
			</g>
		</g>
	</g>
	<g>
		<path class="st1" d="M39.26,23.42c-0.56-0.97-1.57-1.55-2.69-1.55c0,0,0,0,0,0l-5.05,0c-0.82-1.13-2.1-1.79-3.54-1.81
			c-1.42,0.01-2.7,0.68-3.52,1.81l-5.05,0c-1.12,0-2.13,0.58-2.69,1.55c-0.56,0.97-0.56,2.13,0,3.11l4.88,8.46
			c0.56,0.97,1.57,1.55,2.69,1.55c1.12,0,2.13-0.58,2.69-1.55l1-1.74l1,1.74c0.56,0.97,1.57,1.55,2.69,1.55c0,0,0,0,0,0
			c1.12,0,2.13-0.58,2.69-1.55l4.88-8.46C39.83,25.56,39.83,24.4,39.26,23.42z M25.25,22.89c0.57-1,1.6-1.6,2.74-1.61
			c1.16,0.01,2.19,0.61,2.76,1.61c0.57,1,0.57,2.19-0.01,3.18L28,30.82l-2.74-4.75h0C24.68,25.08,24.68,23.89,25.25,22.89z
			 M25.95,34.38c-0.34,0.59-0.95,0.95-1.64,0.95c-0.68,0-1.3-0.35-1.64-0.95l-4.88-8.46c-0.34-0.59-0.34-1.3,0-1.89
			c0.34-0.59,0.95-0.95,1.64-0.95l4.42,0c-0.4,1.19-0.29,2.48,0.36,3.59h0l3.09,5.35L25.95,34.38z M38.21,25.92l-4.88,8.46
			c-0.34,0.59-0.95,0.95-1.64,0.95c0,0,0,0,0,0c-0.68,0-1.3-0.35-1.64-0.94l-1.36-2.34l3.09-5.35c0.65-1.12,0.76-2.41,0.36-3.6
			l4.42,0c0,0,0,0,0,0c0.68,0,1.3,0.35,1.64,0.94C38.55,24.62,38.55,25.33,38.21,25.92z"/>
		<path class="st1" d="M28,25.69c0.68,0,1.24-0.55,1.24-1.24s-0.55-1.24-1.24-1.24c-0.68,0-1.24,0.55-1.24,1.24
			S27.32,25.69,28,25.69z"/>
		<path class="st1" d="M32.53,8.36V8.34l-0.49-0.1L31.31,8.1v0.04c-2.18-0.36-4.43-0.36-6.62,0V8.1l-0.73,0.15l-0.49,0.1v0.02
			C14.37,10.45,7.81,18.63,7.81,28.03c0,9.4,6.56,17.58,15.67,19.67v0.02l0.49,0.1l0.73,0.15v-0.04c1.09,0.18,2.2,0.29,3.31,0.29
			c1.11,0,2.22-0.11,3.31-0.29v0.04l0.73-0.15l0.49-0.1V47.7c9.11-2.09,15.67-10.27,15.67-19.67C48.19,18.63,41.63,10.45,32.53,8.36
			z M46.98,28.03c0,0.85-0.07,1.68-0.18,2.5h-3.95c0.14-0.82,0.21-1.65,0.21-2.5s-0.07-1.68-0.21-2.5h3.95
			C46.91,26.35,46.98,27.19,46.98,28.03z M42.59,31.75h4.01c-0.5,2.49-1.48,4.82-2.87,6.88l-2.84-2.84
			C41.64,34.54,42.22,33.18,42.59,31.75z M42.59,24.32c-0.37-1.43-0.95-2.79-1.7-4.04l2.84-2.84c1.39,2.06,2.37,4.39,2.87,6.88
			H42.59z M43,16.44l-2.8,2.8c-0.98-1.35-2.17-2.55-3.55-3.52l2.8-2.8C40.79,13.93,41.98,15.12,43,16.44z M32.53,9.6
			c2.15,0.53,4.15,1.42,5.93,2.61l-2.84,2.84c-0.96-0.57-1.99-1.04-3.09-1.38V9.6z M20.23,15.13L17.4,12.3
			c1.82-1.23,3.86-2.17,6.07-2.71v4.07C22.32,14.03,21.24,14.53,20.23,15.13z M16.4,13.02l2.8,2.8c-1.36,0.99-2.54,2.2-3.5,3.57
			l-2.8-2.8C13.9,15.25,15.08,14.05,16.4,13.02z M9.02,28.03c0-0.85,0.07-1.68,0.18-2.5h3.95c-0.14,0.82-0.21,1.65-0.21,2.5
			s0.07,1.68,0.21,2.5H9.2C9.09,29.71,9.02,28.88,9.02,28.03z M13.41,31.75c0.35,1.38,0.9,2.68,1.61,3.89l-2.85,2.85
			c-1.34-2.02-2.28-4.31-2.77-6.74H13.41z M13.41,24.32H9.41c0.49-2.43,1.43-4.72,2.77-6.74l2.85,2.85
			C14.31,21.64,13.77,22.94,13.41,24.32z M12.89,39.48l2.8-2.8c0.96,1.37,2.14,2.58,3.5,3.57l-2.8,2.8
			C15.08,42.02,13.9,40.81,12.89,39.48z M23.47,46.47c-2.21-0.54-4.25-1.48-6.07-2.71l2.83-2.83c1.01,0.61,2.09,1.1,3.24,1.47V46.47
			z M31.75,41.36l-0.44,0.12v0.46v4.78c-2.18,0.38-4.44,0.38-6.62,0v-4.78v-0.46l-0.44-0.12c-5.94-1.67-10.09-7.15-10.09-13.33
			c0-6.18,4.15-11.66,10.09-13.33l0.44-0.12v-0.46V9.34c2.18-0.38,4.44-0.38,6.62,0v4.78v0.46l0.44,0.12
			c5.94,1.67,10.09,7.15,10.09,13.33C41.85,34.21,37.7,39.69,31.75,41.36z M32.53,42.4c1.09-0.34,2.12-0.81,3.09-1.38l2.84,2.84
			c-1.78,1.18-3.78,2.08-5.93,2.61V42.4z M39.46,43.15l-2.8-2.8c1.38-0.97,2.57-2.16,3.55-3.52l2.8,2.8
			C41.98,40.94,40.79,42.13,39.46,43.15z"/>
	</g>
</g>
</svg>
