<?xml version="1.0" encoding="utf-8"?>
<!-- Generator: Adobe Illustrator 24.1.1, SVG Export Plug-In . SVG Version: 6.00 Build 0)  -->
<svg version="1.1" id="Capa_1" xmlns="http://www.w3.org/2000/svg" xmlns:xlink="http://www.w3.org/1999/xlink" x="0px" y="0px"
	 viewBox="0 0 25 25" style="enable-background:new 0 0 25 25;" xml:space="preserve">
<style type="text/css">
	.st0{fill:#3F19F9;}
</style>
<g>
	<path class="st0" d="M12.5,25c-0.1,0-0.1,0-0.2,0c-1.5-0.1-2.5-1.4-2.4-2.8l0-0.3h5.2l0,0.3c0,0.1,0,0.3,0,0.4
		C15,23.9,13.9,25,12.5,25z M10.6,22.5c0.1,0.9,0.8,1.7,1.8,1.7c1.1,0.1,2-0.7,2.1-1.7H10.6z M23.2,21.4H1.8v-1.7l2.4-2.4v-6.5
		c0-3.7,2.5-7,6.1-8V2.2c0-1.2,1-2.2,2.2-2.2s2.2,1,2.2,2.2v0.6c3.6,1,6.1,4.2,6.1,8v6.5l2.4,2.4V21.4z M2.5,20.7h19.9V20L20,17.5
		v-6.8c0-3.5-2.4-6.5-5.8-7.3L14,3.3V2.2c0-0.8-0.7-1.5-1.5-1.5S11,1.4,11,2.2v1.1l-0.3,0.1C7.3,4.2,5,7.2,5,10.7v6.8L2.5,20V20.7z"
		/>
</g>
</svg>
