<svg xmlns="http://www.w3.org/2000/svg" width="77.474" height="77.474" viewBox="0 0 77.474 77.474">
  <path id="contactIcon" d="M42.112,3.375h0A38.72,38.72,0,0,0,3.6,38.033a37.329,37.329,0,0,0,0,8.157A38.72,38.72,0,0,0,42.112,80.849h0a38.737,38.737,0,0,0,0-77.474ZM67.4,64.107c-4.228-1.6-11.081-3.948-15.346-5.215-.447-.13-.5-.168-.5-1.993a10.6,10.6,0,0,1,1.229-4.339A21.644,21.644,0,0,0,54.5,46.675a13.085,13.085,0,0,0,2.533-6.127c.6-3.017.317-4.116-.074-5.14a3.3,3.3,0,0,1-.112-.317,33.49,33.49,0,0,1,.577-7.226,13.306,13.306,0,0,0-2.775-9.554c-1.695-2.179-4.954-4.842-10.895-5.215H40.492c-5.848.372-9.088,3.036-10.8,5.215A13.249,13.249,0,0,0,26.9,27.865a33.49,33.49,0,0,1,.577,7.226c-.037.13-.074.223-.112.335-.391,1.024-.689,2.123-.074,5.14a13.287,13.287,0,0,0,2.533,6.127,22.539,22.539,0,0,0,1.713,5.885,10.4,10.4,0,0,1,.708,4.4c0,1.844-.074,1.862-.484,1.993-4.414,1.3-10.969,3.613-14.9,5.177A33.521,33.521,0,0,1,65.82,18.4a33.522,33.522,0,0,1,1.583,45.7Z" transform="translate(-3.375 -3.375)" fill="#3f19f9"/>
</svg>
