<svg xmlns="http://www.w3.org/2000/svg" width="18.053" height="18.053" viewBox="0 0 18.053 18.053">
  <g id="Grupo_832" data-name="Grupo 832" transform="translate(-85 -651.813)">
    <rect id="Rectángulo_741" data-name="Rectángulo 741" width="12.125" height="15.167" transform="translate(89.694 653.699)" fill="#fff"/>
    <path id="facebook" d="M15.622,0H2.435A2.433,2.433,0,0,0,0,2.433V15.62a2.433,2.433,0,0,0,2.433,2.433h6.5L8.95,11.6H7.274a.4.4,0,0,1-.4-.394L6.87,9.128a.4.4,0,0,1,.4-.4H8.939V6.722a3.283,3.283,0,0,1,3.5-3.6H14.15a.4.4,0,0,1,.4.4V5.27a.4.4,0,0,1-.4.4H13.1c-1.131,0-1.35.538-1.35,1.326v1.74h2.486a.4.4,0,0,1,.393.442l-.246,2.079a.4.4,0,0,1-.393.349H11.763l-.011,6.451h3.87a2.433,2.433,0,0,0,2.433-2.433V2.433A2.433,2.433,0,0,0,15.622,0Z" transform="translate(84.998 651.813)" fill="#475993"/>
  </g>
</svg>
