<?xml version="1.0" encoding="utf-8"?>
<!-- Generator: Adobe Illustrator 24.1.3, SVG Export Plug-In . SVG Version: 6.00 Build 0)  -->
<svg version="1.1" id="Capa_1" xmlns="http://www.w3.org/2000/svg" xmlns:xlink="http://www.w3.org/1999/xlink" x="0px" y="0px"
	 viewBox="0 0 43.1 38.2" style="enable-background:new 0 0 43.1 38.2;" xml:space="preserve">
<style type="text/css">
	.st0{opacity:0.35;fill:#2A11A0;enable-background:new    ;}
	.st1{fill:#FFFFFF;}
</style>
<g>
	<circle id="Elipse_27" class="st0" cx="21.6" cy="19.1" r="17.5"/>
	<path id="Trazado_2214" class="st1" d="M25.3,11.7h-1.9c-1.9-0.1-3.4,1.3-3.6,3.2c0,0.2,0,0.3,0,0.5V17h-1.9
		c-0.2,0-0.3,0.1-0.3,0.3v2.4c0,0.2,0.1,0.3,0.3,0.3h1.9v6.1c0,0.2,0.1,0.3,0.3,0.3h2.5c0.2,0,0.3-0.1,0.3-0.3V20h2.3
		c0.2,0,0.3-0.1,0.3-0.3v-2.4c0-0.2-0.1-0.3-0.3-0.3h-2.3v-1.4c0-0.7,0.2-1,1.1-1h1.3c0.2,0,0.3-0.1,0.3-0.3V12
		C25.6,11.8,25.4,11.7,25.3,11.7L25.3,11.7z"/>
</g>
</svg>
