<svg xmlns="http://www.w3.org/2000/svg" width="62.266" height="48.163" viewBox="0 0 62.266 48.163">
  <g id="Grupo_640" data-name="Grupo 640" transform="translate(-157.26 -398.233)">
    <g id="Grupo_631" data-name="Grupo 631" transform="translate(157.26 398.233)">
      <path id="Trazado_2213" data-name="Trazado 2213" d="M59.885,70.9l-1.357-1.437L53.764,56.619A5.587,5.587,0,0,0,48.562,53H14.542a5.568,5.568,0,0,0-5.2,3.619L4.643,69.3,2.688,71.108A7.645,7.645,0,0,0,0,76.922V95.628a5.562,5.562,0,0,0,5.561,5.535H9.074a5.562,5.562,0,0,0,5.561-5.535V92.914h33v2.714a5.562,5.562,0,0,0,5.561,5.535H56.7a5.562,5.562,0,0,0,5.561-5.535V76.43A7.715,7.715,0,0,0,59.885,70.9ZM11.841,57.524a2.878,2.878,0,0,1,2.7-1.863H48.576a2.9,2.9,0,0,1,2.7,1.863L55.428,68.7h-3.1a9.126,9.126,0,0,0-18.055,0H7.69ZM49.613,68.7H36.961a6.463,6.463,0,0,1,12.653,0ZM11.974,95.628a2.893,2.893,0,0,1-2.9,2.874H5.561a2.893,2.893,0,0,1-2.9-2.874V92.143a5.4,5.4,0,0,0,2.9.772h6.413Zm47.631,0A2.893,2.893,0,0,1,56.7,98.5H53.192a2.9,2.9,0,0,1-2.9-2.874V92.914H56.7a5.4,5.4,0,0,0,2.9-.772v3.486Zm-2.9-5.375H5.561a2.87,2.87,0,0,1-2.9-2.847V76.922a5,5,0,0,1,1.77-3.805l.053-.053,1.809-1.7H56.678l1.277,1.37c.013.027.053.04.067.066a5.015,5.015,0,0,1,1.57,3.632V87.406h.013A2.879,2.879,0,0,1,56.7,90.253Z" transform="translate(0 -53)" fill="#3f19f9"/>
    </g>
    <g id="Grupo_633" data-name="Grupo 633" transform="translate(164.001 421.457)">
      <path id="Trazado_2214" data-name="Trazado 2214" d="M59.191,231H48.434A1.438,1.438,0,0,0,47,232.434v7.458a1.438,1.438,0,0,0,1.434,1.434H59.191a1.438,1.438,0,0,0,1.434-1.434v-7.458A1.438,1.438,0,0,0,59.191,231Zm-1.434,7.458H49.869v-4.59h7.888Z" transform="translate(-47 -231)" fill="#3f19f9"/>
    </g>
    <g id="Grupo_635" data-name="Grupo 635" transform="translate(199.159 421.457)">
      <path id="Trazado_2215" data-name="Trazado 2215" d="M338.192,231H327.435A1.438,1.438,0,0,0,326,232.434v7.458a1.438,1.438,0,0,0,1.435,1.434h10.757a1.438,1.438,0,0,0,1.434-1.434v-7.458A1.438,1.438,0,0,0,338.192,231Zm-1.435,7.458h-7.888v-4.59h7.888Z" transform="translate(-326 -231)" fill="#3f19f9"/>
    </g>
    <g id="Grupo_637" data-name="Grupo 637" transform="translate(180.031 427.37)">
      <path id="Trazado_2216" data-name="Trazado 2216" d="M190.989,273H177.134a1.434,1.434,0,0,0,0,2.869h13.855a1.434,1.434,0,0,0,0-2.869Z" transform="translate(-175.7 -273)" fill="#3f19f9"/>
    </g>
    <g id="Grupo_639" data-name="Grupo 639" transform="translate(180.031 423.265)">
      <path id="Trazado_2217" data-name="Trazado 2217" d="M190.989,242H177.134a1.434,1.434,0,1,0,0,2.869h13.855a1.434,1.434,0,0,0,0-2.869Z" transform="translate(-175.7 -242)" fill="#3f19f9"/>
    </g>
  </g>
</svg>
