<svg xmlns="http://www.w3.org/2000/svg" width="40.954" height="58.705" viewBox="0 0 40.954 58.705">
  <g id="Grupo_1" data-name="Grupo 1" transform="translate(-167.703 -392.795)">
    <path id="Trazado_2218" data-name="Trazado 2218" d="M117.215,0H78.555a1.147,1.147,0,0,0-1.147,1.147V30.218a1.147,1.147,0,0,0,1.147,1.147h4.1v6.291a7.569,7.569,0,0,0,7.56,7.56h1.053v1.649A24.7,24.7,0,0,1,89.2,56.756l-.15.394A1.147,1.147,0,0,0,90.12,58.7h15.531a1.146,1.146,0,0,0,1.072-1.554l-.15-.394a24.7,24.7,0,0,1-2.071-9.892V45.215h1.053a7.569,7.569,0,0,0,7.56-7.56V31.364h4.1a1.147,1.147,0,0,0,1.147-1.147V1.147A1.147,1.147,0,0,0,117.215,0Zm-1.147,2.293V6.687h-12.74q-.043,0-.084,0a12.758,12.758,0,0,0-10.719,0c-.028,0-.056,0-.084,0H79.7V2.293ZM79.7,29.071V8.98h9.352A16.771,16.771,0,0,0,83.673,21.5a25.022,25.022,0,0,0,1.241,7.569ZM104,56.412H91.772a25.542,25.542,0,0,0,1.79-9.548V45.215h8.645v1.649A25.546,25.546,0,0,0,104,56.412Zm6.823-18.757a5.273,5.273,0,0,1-5.267,5.267H90.216a5.273,5.273,0,0,1-5.267-5.267V36.6h25.871Zm0-3.349H84.95V31.364H92.7a1.147,1.147,0,0,0,0-2.293H87.369a21.622,21.622,0,0,1-1.4-7.569c0-7.554,5.347-13.7,11.92-13.7S109.8,13.948,109.8,21.5a21.619,21.619,0,0,1-1.4,7.569h-5.329a1.147,1.147,0,0,0,0,2.293h7.748v2.942Zm5.248-5.235h-5.212A25.017,25.017,0,0,0,112.1,21.5,16.771,16.771,0,0,0,106.717,8.98h9.352Z" transform="translate(90.295 392.795)" fill="#3f19f9"/>
    <path id="Trazado_2219" data-name="Trazado 2219" d="M246.408,254.723a.573.573,0,1,1,.562-.461A.577.577,0,0,1,246.408,254.723Z" transform="translate(-58.25 168.882)" fill="#3f19f9"/>
  </g>
</svg>
