<svg xmlns="http://www.w3.org/2000/svg" width="14.565" height="14.904" viewBox="0 0 14.565 14.904">
  <g id="Grupo_831" data-name="Grupo 831" transform="translate(-97 -724.143)">
    <path id="Trazado_2217" data-name="Trazado 2217" d="M42.4,10.622a7.147,7.147,0,0,1,1.934-2.448,7.439,7.439,0,0,1,8.541-.649,8.335,8.335,0,0,1,1.026.732c.08.065.071.1,0,.17q-1,.991-1.984,1.987c-.077.077-.119.071-.2.009a4.384,4.384,0,0,0-6.777,2,.865.865,0,0,1-.054.1c-.384-.292-.77-.583-1.151-.878Q43.066,11.138,42.4,10.622Z" transform="translate(55.371 717.669)" fill="#e94335"/>
    <path id="Trazado_2218" data-name="Trazado 2218" d="M44.79,303.8a7.761,7.761,0,0,0,.4.842,4.279,4.279,0,0,0,2.909,2.07,4.651,4.651,0,0,0,3.272-.5c.036-.018.071-.036.1-.054.018.018.033.039.051.054L53.827,308a5.885,5.885,0,0,1-1.235.916,7.155,7.155,0,0,1-4.171.922,7.305,7.305,0,0,1-4.733-2.178,6.8,6.8,0,0,1-1.389-1.963c.318-.244.637-.485.955-.729C43.767,304.576,44.278,304.19,44.79,303.8Z" transform="translate(55.468 429.188)" fill="#34a853"/>
    <path id="Trazado_2219" data-name="Trazado 2219" d="M271.743,217.958l-2.306-1.785a.428.428,0,0,1-.051-.054,4.573,4.573,0,0,0,.753-.666,3.46,3.46,0,0,0,.729-1.475c.015-.068,0-.092-.065-.089-.036,0-.068,0-.1,0-1.214,0-2.43,0-3.644,0-.134,0-.164-.036-.161-.164q.009-1.294,0-2.588c0-.11.03-.14.14-.14q3.338,0,6.678,0c.1,0,.134.024.158.125a7.01,7.01,0,0,1,.06,2.466,8.062,8.062,0,0,1-.5,1.919,6.826,6.826,0,0,1-1.612,2.395C271.793,217.925,271.766,217.94,271.743,217.958Z" transform="translate(-162.444 519.228)" fill="#4285f3"/>
    <path id="Trazado_2220" data-name="Trazado 2220" d="M19.735,150.694,18.2,151.86c-.318.241-.637.485-.955.729a6.437,6.437,0,0,1-.538-1.443,7.5,7.5,0,0,1-.152-2.933,6.825,6.825,0,0,1,.69-2.213c.446.342.889.687,1.336,1.029q.576.442,1.151.878a8.648,8.648,0,0,0-.187.958,4.616,4.616,0,0,0,.173,1.746A.244.244,0,0,1,19.735,150.694Z" transform="translate(80.522 582.294)" fill="#fabb06"/>
  </g>
</svg>
