<?xml version="1.0" encoding="utf-8"?>
<!-- Generator: Adobe Illustrator 24.1.3, SVG Export Plug-In . SVG Version: 6.00 Build 0)  -->
<svg version="1.1" id="Capa_1" xmlns="http://www.w3.org/2000/svg" xmlns:xlink="http://www.w3.org/1999/xlink" x="0px" y="0px"
	 viewBox="0 0 43.1 38.2" style="enable-background:new 0 0 43.1 38.2;" xml:space="preserve">
<style type="text/css">
	.st0{opacity:0.35;fill:#2A11A0;enable-background:new    ;}
	.st1{fill:#FFFFFF;}
</style>
<g>
	<circle id="Elipse_26" class="st0" cx="21.6" cy="19.1" r="17.5"/>
	<g>
		<path class="st1" d="M21.6,10.9c1.2,0,2.3,0,3.5,0c1.1,0,2.1,0.3,3,1c0.8,0.6,1.3,1.4,1.5,2.4c0.1,0.4,0.1,0.7,0.1,1.1
			c0,2.4,0,4.8,0,7.3c0,1.8-0.8,3.1-2.3,4c-0.7,0.4-1.4,0.6-2.2,0.6c-2.4,0-4.9,0-7.3,0c-1.8,0-3.1-0.8-4-2.4
			c-0.4-0.7-0.5-1.4-0.5-2.2c0-2.4,0-4.9,0-7.3c0-1.8,0.8-3.1,2.3-4c0.7-0.4,1.4-0.6,2.2-0.6C19.2,10.9,20.4,10.9,21.6,10.9z
			 M21.6,25.8c1.2,0,2.4,0,3.6,0c0.5,0,0.9-0.1,1.4-0.3c1.2-0.6,1.8-1.5,1.8-2.8c0-2.4,0-4.8,0-7.2c0-0.5-0.1-0.9-0.3-1.3
			c-0.6-1.2-1.5-1.8-2.8-1.8c-2.4,0-4.8,0-7.2,0c-0.5,0-0.9,0.1-1.3,0.3c-1.2,0.6-1.8,1.5-1.8,2.8c0,2.4,0,4.8,0,7.2
			c0,1.1,0.4,1.9,1.3,2.6c0.5,0.4,1.2,0.6,1.8,0.6C19.2,25.8,20.4,25.8,21.6,25.8z"/>
		<path class="st1" d="M21.6,23.3c-2.3,0-4.2-1.9-4.2-4.2s1.9-4.2,4.2-4.2s4.2,1.9,4.2,4.2C25.8,21.4,23.9,23.3,21.6,23.3z
			 M21.6,21.8c1.5,0,2.8-1.2,2.8-2.8c0-1.5-1.2-2.8-2.8-2.8c-1.5,0-2.8,1.2-2.8,2.8C18.8,20.6,20.1,21.8,21.6,21.8z"/>
		<path class="st1" d="M26,15.8c-0.6,0-1.1-0.5-1.1-1.1s0.5-1.1,1.1-1.1s1.1,0.5,1.1,1.1C27,15.3,26.5,15.8,26,15.8z"/>
	</g>
</g>
</svg>
