<?xml version="1.0" encoding="utf-8"?>
<!-- Generator: Adobe Illustrator 24.1.3, SVG Export Plug-In . SVG Version: 6.00 Build 0)  -->
<svg version="1.1" id="Capa_1" xmlns="http://www.w3.org/2000/svg" xmlns:xlink="http://www.w3.org/1999/xlink" x="0px" y="0px"
	 viewBox="0 0 43.1 38.2" style="enable-background:new 0 0 43.1 38.2;" xml:space="preserve">
<style type="text/css">
	.st0{opacity:0.35;fill:#2A11A0;enable-background:new    ;}
	.st1{fill:#FDFDFE;}
</style>
<circle id="Elipse_27" class="st0" cx="21.5" cy="19.1" r="17.5"/>
<g>
	<path class="st1" d="M22.3,17.9c0.2-0.2,0.3-0.4,0.5-0.6c0.4-0.3,0.8-0.5,1.3-0.6c0.6-0.1,1.3-0.1,1.9,0c1,0.2,1.7,0.8,2.1,1.8
		c0.2,0.5,0.3,1.1,0.3,1.6c0.1,1.1,0,2.1,0,3.2c0,0.8,0,1.5,0,2.3c0,0.3-0.2,0.5-0.5,0.5c-0.7,0-1.4,0-2,0c-0.3,0-0.5-0.2-0.5-0.5
		c0-1.5,0-3,0-4.4c0-0.4,0-0.7-0.2-1.1c-0.2-0.7-0.7-1-1.4-1c-0.7,0-1.2,0.4-1.4,1.1c-0.1,0.4-0.2,0.7-0.2,1.1c0,1.4,0,2.8,0,4.2
		c0,0.4-0.2,0.6-0.6,0.6c-0.6,0-1.2,0-1.9,0c-0.3,0-0.5-0.2-0.5-0.5c0-2.8,0-5.5,0-8.3c0-0.4,0.2-0.5,0.5-0.5c0.6,0,1.3,0,1.9,0
		c0.3,0,0.5,0.2,0.5,0.5C22.3,17.4,22.3,17.6,22.3,17.9z"/>
	<path class="st1" d="M15,21.4c0-1.4,0-2.7,0-4.1c0-0.4,0.2-0.6,0.6-0.6c0.6,0,1.2,0,1.8,0c0.4,0,0.5,0.2,0.5,0.5c0,2.8,0,5.5,0,8.3
		c0,0.4-0.2,0.5-0.5,0.5c-0.6,0-1.3,0-1.9,0c-0.4,0-0.5-0.2-0.5-0.5C15,24.2,15,22.8,15,21.4z"/>
	<path class="st1" d="M14.6,14c0-1.1,0.8-1.9,1.9-1.9c1,0,1.9,0.9,1.9,1.9c0,1-0.9,1.9-1.9,1.9C15.5,15.9,14.6,15.1,14.6,14z"/>
</g>
</svg>
