<?xml version="1.0" encoding="utf-8"?>
<!-- Generator: Adobe Illustrator 24.1.2, SVG Export Plug-In . SVG Version: 6.00 Build 0)  -->
<svg version="1.1" id="Capa_1" xmlns="http://www.w3.org/2000/svg" xmlns:xlink="http://www.w3.org/1999/xlink" x="0px" y="0px"
	 viewBox="0 0 422.7 422.7" style="enable-background:new 0 0 422.7 422.7;" xml:space="preserve">
<style type="text/css">
	.st0{fill:#FFFFFF;}
	.st1{fill:#32FFD2;}
	.st2{fill:#41B8F9;}
</style>
<g>
	<g>
		<path class="st0" d="M393.3,105.1c6,0,10.9,4.9,10.9,10.9c0,6-4.9,10.9-10.9,10.9c-6,0-10.9-4.9-10.9-10.9
			C382.4,110,387.3,105.1,393.3,105.1 M393.3,102.8c-7.3,0-13.2,5.9-13.2,13.2c0,7.3,5.9,13.2,13.2,13.2c7.3,0,13.2-5.9,13.2-13.2
			C406.4,108.7,400.6,102.8,393.3,102.8L393.3,102.8z"/>
		<g>
			<path class="st0" d="M399.2,123h-3.3l-3.4-5.7h0v5.7h-2.8v-14.1h3.7c2.8,0,4.7,1.2,4.7,4.2c0,1.8-1,3.6-2.9,3.9L399.2,123z
				 M392.4,115.4h0.4c1.5,0,2.6-0.4,2.6-2.2c0-1.7-1.1-2.1-2.6-2.1h-0.4V115.4z"/>
		</g>
	</g>
	<g>
		<g>
			<path class="st1" d="M338.6,115.9l-140.6,0v156.8l0,0l25.1,43.4c15.8,27.3,55.2,27.3,71,0l80-138.7
				C389.8,150,370.1,115.9,338.6,115.9"/>
			<path class="st0" d="M57.3,115.9c-31.5,0-51.3,34.2-35.5,61.5l80.1,138.7c15.8,27.3,55.2,27.3,71,0l25.1-43.4V115.9L57.3,115.9z"
				/>
			<path class="st2" d="M144.3,179.9c-11.2-19.4-11.3-42.7-0.1-62.1c11.1-19.5,31.2-31.2,53.6-31.4c22.6,0.2,42.7,11.9,53.8,31.4
				c11.1,19.5,11.1,42.7-0.1,62.1l-53.6,92.8L144.3,179.9z"/>
			<path class="st0" d="M218.2,148.3c0,11.2-9.1,20.3-20.3,20.3c-11.2,0-20.3-9.1-20.3-20.3c0-11.2,9.1-20.3,20.3-20.3
				C209.1,128,218.2,137.1,218.2,148.3"/>
		</g>
	</g>
</g>
</svg>
