<svg xmlns="http://www.w3.org/2000/svg" xmlns:xlink="http://www.w3.org/1999/xlink" width="235.401" height="26.305" viewBox="0 0 235.401 26.305">
  <defs>
    <clipPath id="clip-path">
      <rect width="235.401" height="26.305" fill="none"/>
    </clipPath>
  </defs>
  <g id="Componente_2_1" data-name="Componente 2 – 1" transform="translate(0)" clip-path="url(#clip-path)">
    <path id="Trazado_18" data-name="Trazado 18" d="M20.023,30.708l.506,3.469.741-3.125,5.2-18.355H29.4l5.077,18.355.723,3.18.56-3.541L39.842,12.7h3.487L36.951,39H33.79L28.37,19.832l-.416-2.005-.416,2.005L21.92,39H18.758L12.4,12.7h3.469ZM61.332,39H57.864V12.7h3.469Zm34.95-23.468H87.828V39H84.377V15.532H75.94V12.7H96.283ZM114.341,39h-3.469V12.7h3.469Zm16.775,0V12.7h7.425a11.953,11.953,0,0,1,6.07,1.518,10.264,10.264,0,0,1,4.074,4.318,14.054,14.054,0,0,1,1.454,6.432v1.68a14.1,14.1,0,0,1-1.436,6.522,10.1,10.1,0,0,1-4.1,4.3A12.715,12.715,0,0,1,138.4,39Zm3.469-23.468V36.164h3.649a7.94,7.94,0,0,0,6.242-2.5q2.231-2.5,2.231-7.106V25.025a10.473,10.473,0,0,0-2.1-6.971,7.49,7.49,0,0,0-5.971-2.523Zm46.1,11.31h-11.4v9.322h13.243V39H165.813V12.7h16.531v2.836H169.282V24h11.4Zm31.12,5.275H200.781L198.306,39h-3.577l10.045-26.3h3.035L217.872,39h-3.559Zm-9.973-2.836h8.943l-4.48-12.3Zm33.5,6.883H247.8V39H231.847V12.7h3.487Z" transform="translate(-12.399 -12.695)" fill="#707070"/>
  </g>
</svg>
