<?xml version="1.0" encoding="utf-8"?>
<!-- Generator: Adobe Illustrator 24.0.1, SVG Export Plug-In . SVG Version: 6.00 Build 0)  -->
<svg version="1.1" id="Capa_1" xmlns="http://www.w3.org/2000/svg" xmlns:xlink="http://www.w3.org/1999/xlink" x="0px" y="0px"
	 viewBox="0 0 70.1 17" style="enable-background:new 0 0 70.1 17;" xml:space="preserve">
<style type="text/css">
	.st0{enable-background:new    ;}
	.st1{fill:#9E9D9D;}
	.st2{fill:#E94335;}
	.st3{fill:#34A853;}
	.st4{fill:#4285F3;}
	.st5{fill:#FABB06;}
</style>
<g id="Grupo_531" transform="translate(-1311.999 -489)">
	<g class="st0">
		<path class="st1" d="M1344.5,497.2h3.4v4.4c-0.6,0.2-1.1,0.3-1.6,0.4s-1,0.1-1.5,0.1c-1.3,0-2.3-0.4-3-1.1s-1-1.9-1-3.3
			c0-1.4,0.4-2.5,1.2-3.2s1.9-1.2,3.3-1.2c0.9,0,1.7,0.2,2.5,0.5l-0.6,1.5c-0.6-0.3-1.3-0.5-2-0.5c-0.8,0-1.4,0.3-1.9,0.8
			s-0.7,1.2-0.7,2.1c0,0.9,0.2,1.6,0.6,2.1s0.9,0.7,1.7,0.7c0.4,0,0.8,0,1.2-0.1v-1.8h-1.6V497.2z"/>
		<path class="st1" d="M1355.8,498.7c0,1.1-0.3,1.9-0.8,2.5s-1.3,0.9-2.3,0.9c-0.6,0-1.2-0.1-1.7-0.4s-0.8-0.7-1.1-1.2
			s-0.4-1.1-0.4-1.8c0-1.1,0.3-1.9,0.8-2.5s1.3-0.9,2.4-0.9c0.6,0,1.2,0.1,1.7,0.4s0.8,0.7,1.1,1.2S1355.8,498,1355.8,498.7z
			 M1351.3,498.7c0,0.6,0.1,1.1,0.3,1.5s0.6,0.5,1,0.5c0.5,0,0.8-0.2,1-0.5s0.3-0.8,0.3-1.5c0-0.6-0.1-1.1-0.3-1.5s-0.6-0.5-1-0.5
			c-0.5,0-0.8,0.2-1,0.5S1351.3,498.1,1351.3,498.7z"/>
		<path class="st1" d="M1363.2,498.7c0,1.1-0.3,1.9-0.8,2.5s-1.3,0.9-2.3,0.9c-0.6,0-1.2-0.1-1.7-0.4s-0.8-0.7-1.1-1.2
			s-0.4-1.1-0.4-1.8c0-1.1,0.3-1.9,0.8-2.5s1.3-0.9,2.4-0.9c0.6,0,1.2,0.1,1.7,0.4s0.8,0.7,1.1,1.2S1363.2,498,1363.2,498.7z
			 M1358.7,498.7c0,0.6,0.1,1.1,0.3,1.5s0.6,0.5,1,0.5c0.5,0,0.8-0.2,1-0.5s0.3-0.8,0.3-1.5c0-0.6-0.1-1.1-0.3-1.5s-0.6-0.5-1-0.5
			c-0.5,0-0.8,0.2-1,0.5S1358.7,498.1,1358.7,498.7z"/>
		<path class="st1" d="M1370.4,495.4v0.9l-1,0.3c0.2,0.3,0.3,0.6,0.3,1c0,0.7-0.2,1.3-0.7,1.6s-1.2,0.6-2,0.6l-0.3,0l-0.3,0
			c-0.2,0.1-0.3,0.3-0.3,0.5c0,0.3,0.3,0.4,1,0.4h1.1c0.7,0,1.3,0.2,1.6,0.5s0.6,0.8,0.6,1.4c0,0.8-0.3,1.4-1,1.8s-1.6,0.6-2.8,0.6
			c-0.9,0-1.6-0.2-2.1-0.5s-0.7-0.8-0.7-1.3c0-0.4,0.1-0.7,0.4-1s0.6-0.5,1.1-0.6c-0.2-0.1-0.3-0.2-0.5-0.4s-0.2-0.4-0.2-0.6
			c0-0.3,0.1-0.5,0.2-0.6s0.4-0.3,0.6-0.5c-0.3-0.1-0.6-0.4-0.8-0.7s-0.3-0.7-0.3-1.2c0-0.7,0.2-1.3,0.7-1.7s1.1-0.6,2-0.6
			c0.2,0,0.4,0,0.7,0s0.4,0.1,0.5,0.1H1370.4z M1365.3,502.9c0,0.2,0.1,0.4,0.4,0.6s0.6,0.2,1,0.2c0.6,0,1.1-0.1,1.5-0.3
			s0.5-0.4,0.5-0.7c0-0.2-0.1-0.4-0.3-0.5s-0.5-0.1-1-0.1h-0.9c-0.3,0-0.6,0.1-0.8,0.2S1365.3,502.7,1365.3,502.9z M1366,497.6
			c0,0.4,0.1,0.6,0.2,0.8s0.4,0.3,0.7,0.3c0.3,0,0.6-0.1,0.7-0.3s0.2-0.5,0.2-0.8c0-0.8-0.3-1.2-1-1.2
			C1366.3,496.4,1366,496.8,1366,497.6z"/>
		<path class="st1" d="M1373.3,502h-1.8v-9.1h1.8V502z"/>
		<path class="st1" d="M1378.1,502.1c-1.1,0-1.9-0.3-2.5-0.9s-0.9-1.4-0.9-2.5c0-1.1,0.3-1.9,0.8-2.5s1.3-0.9,2.3-0.9
			c0.9,0,1.6,0.3,2.2,0.8s0.8,1.3,0.8,2.2v0.9h-4.2c0,0.5,0.2,0.9,0.5,1.2s0.7,0.4,1.2,0.4c0.4,0,0.8,0,1.1-0.1s0.7-0.2,1.1-0.4v1.4
			c-0.3,0.2-0.6,0.3-1,0.3S1378.6,502.1,1378.1,502.1z M1377.8,496.6c-0.4,0-0.7,0.1-0.9,0.4s-0.3,0.6-0.4,1h2.5
			c0-0.4-0.1-0.8-0.3-1S1378.2,496.6,1377.8,496.6z"/>
	</g>
	<g id="Grupo_530" transform="translate(2.999 -29.858)">
		<g id="google_icon-icons.com_62736" transform="translate(1309 520.189)">
			<path id="Trazado_2217" class="st2" d="M0.8,4.1c0.5-0.9,1.1-1.8,1.9-2.4c2.4-2,5.8-2.3,8.5-0.6c0.4,0.2,0.7,0.5,1,0.7
				c0.1,0.1,0.1,0.1,0,0.2c-0.7,0.7-1.3,1.3-2,2c-0.1,0.1-0.1,0.1-0.2,0C8.2,2.5,5.4,2.9,3.9,4.8C3.7,5.1,3.5,5.5,3.3,5.9
				c0,0,0,0.1-0.1,0.1C2.9,5.8,2.5,5.5,2.1,5.2C1.7,4.8,1.2,4.5,0.8,4.1z"/>
			<path id="Trazado_2218" class="st3" d="M3.3,8.8c0.1,0.3,0.2,0.6,0.4,0.8c0.6,1.1,1.7,1.8,2.9,2.1c1.1,0.2,2.3,0.1,3.3-0.5
				c0,0,0.1,0,0.1-0.1c0,0,0,0,0.1,0.1l2.3,1.8c-0.4,0.4-0.8,0.7-1.2,0.9c-1.3,0.7-2.7,1-4.2,0.9c-1.8-0.1-3.5-0.9-4.7-2.2
				c-0.6-0.6-1-1.2-1.4-2c0.3-0.2,0.6-0.5,1-0.7C2.2,9.6,2.7,9.2,3.3,8.8z"/>
			<path id="Trazado_2219" class="st4" d="M12.3,13L10,11.3c0,0,0,0-0.1-0.1c0.3-0.2,0.5-0.4,0.8-0.7c0.4-0.4,0.6-0.9,0.7-1.5
				c0-0.1,0-0.1-0.1-0.1c0,0-0.1,0-0.1,0C10,9,8.8,9,7.6,9c-0.1,0-0.2,0-0.2-0.2c0-0.9,0-1.7,0-2.6c0-0.1,0-0.1,0.1-0.1
				c2.2,0,4.5,0,6.7,0c0.1,0,0.1,0,0.2,0.1c0.2,0.8,0.2,1.6,0.1,2.5c-0.1,0.7-0.3,1.3-0.5,1.9C13.6,11.5,13.1,12.3,12.3,13
				C12.3,13,12.3,13,12.3,13z"/>
			<path id="Trazado_2220" class="st5" d="M3.3,8.8L1.7,10c-0.3,0.2-0.6,0.5-1,0.7c-0.2-0.5-0.4-0.9-0.5-1.4c-0.2-1-0.3-2-0.2-2.9
				c0.1-0.8,0.3-1.5,0.7-2.2c0.4,0.3,0.9,0.7,1.3,1c0.4,0.3,0.8,0.6,1.2,0.9C3.2,6.4,3.1,6.7,3.1,7C3,7.6,3.1,8.2,3.3,8.8
				C3.3,8.8,3.3,8.8,3.3,8.8z"/>
		</g>
	</g>
</g>
</svg>
