<svg width="100" height="24.25" xmlns="http://www.w3.org/2000/svg">
 <style type="text/css">.st0{enable-background:new    ;}
	.st1{fill:#777777;}
	.st2{fill:#FFFFFF;}
	.st3{fill:#475993;}</style>

 <g>
  <title>background</title>
  <rect fill="none" id="canvas_background" height="26.25" width="102" y="-1" x="-1"/>
 </g>
 <g>
  <title>Layer 1</title>
  <g stroke="null" id="Grupo_528">
   <g stroke="null" id="svg_1" class="st0">
    <path stroke="null" id="svg_2" d="m41.09089,20.207017l-1.920857,0l0,-15.464916l5.229,0l0,2.697369l-3.308143,0l0,3.956141l3.094715,0l0,2.697369l-3.094715,0l0,6.114037z" class="st1"/>
    <path stroke="null" id="svg_3" d="m50.481747,20.207017l-0.320143,-1.618421l0,0c-0.320143,0.719298 -0.640286,1.078948 -0.960429,1.438597s-0.747,0.359649 -1.280572,0.359649c-0.640286,0 -1.173857,-0.359649 -1.600714,-0.899123s-0.533571,-1.618421 -0.533571,-2.697369c0,-1.258772 0.213429,-2.157895 0.747,-2.697369s1.280572,-0.899123 2.347714,-0.899123l1.173857,0l0,-0.539474c0,-1.258772 -0.320143,-1.798246 -1.067143,-1.798246c-0.533571,0 -1.173857,0.359649 -1.920857,0.899123l-0.640286,-2.157895c0.853714,-0.719298 1.707429,-1.078948 2.667857,-1.078948c0.960429,0 1.707429,0.359649 2.134286,1.078948s0.747,1.798246 0.747,3.057018l0,7.912283l-1.494,0l0,-0.359649zm-0.533571,-5.574563l-0.747,0c-0.533571,0 -0.960429,0.179825 -1.280572,0.539474s-0.426857,0.719298 -0.426857,1.438597c0,0.899123 0.320143,1.438597 0.960429,1.438597c0.426857,0 0.747,-0.179825 1.067143,-0.719298s0.426857,-1.078948 0.426857,-1.618421l0,-1.078948z" class="st1"/>
    <path stroke="null" id="svg_4" d="m56.671177,20.386841c-2.134286,0 -3.308143,-1.978071 -3.308143,-6.114037c0,-1.978071 0.320143,-3.596492 0.853714,-4.67544s1.387286,-1.618421 2.561143,-1.618421c0.853714,0 1.494,0.179825 2.134286,0.719298l-0.533571,2.517544c-0.320143,-0.179825 -0.533571,-0.359649 -0.853714,-0.539474s-0.533571,-0.179825 -0.747,-0.179825c-0.960429,0 -1.494,1.258772 -1.494,3.596492c0,2.33772 0.533571,3.416667 1.494,3.416667c0.320143,0 0.747,0 1.067143,-0.179825s0.640286,-0.359649 0.960429,-0.719298l0,2.697369c-0.320143,0.359649 -0.640286,0.539474 -0.960429,0.719298s-0.747,0.359649 -1.173857,0.359649z" class="st1"/>
    <path stroke="null" id="svg_5" d="m63.607606,20.386841c-1.173857,0 -2.027572,-0.539474 -2.667857,-1.618421s-0.960429,-2.517544 -0.960429,-4.495615c0,-1.978071 0.320143,-3.416667 0.853714,-4.495615s1.387286,-1.618421 2.454429,-1.618421c0.960429,0 1.707429,0.539474 2.347714,1.438597s0.853714,2.33772 0.853714,3.956141l0,1.618421l-4.482,0c0,0.899123 0.213429,1.618421 0.533571,2.157895s0.747,0.719298 1.280572,0.719298c0.426857,0 0.853714,0 1.173857,-0.179825s0.747,-0.359649 1.173857,-0.719298l0,2.517544c-0.320143,0.359649 -0.640286,0.539474 -1.067143,0.539474s-0.960429,0.179825 -1.494,0.179825zm-0.320143,-9.890353c-0.426857,0 -0.747,0.179825 -0.960429,0.719298s-0.320143,1.078948 -0.426857,1.798246l2.667857,0c0,-0.719298 -0.106714,-1.438597 -0.320143,-1.798246s-0.533571,-0.719298 -0.960429,-0.719298z" class="st1"/>
    <path stroke="null" id="svg_6" d="m71.824606,8.158768c0.853714,0 1.494,0.539474 1.920857,1.618421s0.747,2.517544 0.747,4.495615c0,1.978071 -0.213429,3.416667 -0.747,4.495615s-1.173857,1.618421 -1.920857,1.618421c-0.853714,0 -1.494,-0.539474 -1.920857,-1.438597l-0.106714,0l-0.320143,1.258772l-1.494,0l0,-16.364039l1.920857,0l0,3.776317c0,0.539474 0,1.258772 -0.106714,2.33772l0.106714,0c0.426857,-1.258772 1.067143,-1.798246 1.920857,-1.798246zm-0.533571,2.517544c-0.426857,0 -0.853714,0.179825 -1.067143,0.719298s-0.320143,1.258772 -0.320143,2.33772l0,0.359649c0,1.258772 0.106714,2.157895 0.320143,2.697369s0.533571,0.899123 1.067143,0.899123c0.426857,0 0.747,-0.359649 0.960429,-0.899123s0.320143,-1.438597 0.320143,-2.697369s-0.106714,-1.978071 -0.320143,-2.697369s-0.640286,-0.719298 -0.960429,-0.719298z" class="st1"/>
    <path stroke="null" id="svg_7" d="m82.389321,14.272805c0,1.978071 -0.320143,3.416667 -0.853714,4.495615s-1.387286,1.618421 -2.454429,1.618421c-0.640286,0 -1.280572,-0.179825 -1.814143,-0.719298s-0.853714,-1.258772 -1.173857,-2.157895s-0.426857,-1.978071 -0.426857,-3.236843c0,-1.978071 0.320143,-3.416667 0.853714,-4.495615s1.387286,-1.618421 2.561143,-1.618421c0.640286,0 1.280572,0.179825 1.814143,0.719298s0.853714,1.258772 1.173857,2.157895s0.320143,1.978071 0.320143,3.236843zm-4.802143,0c0,1.078948 0.106714,1.978071 0.320143,2.697369s0.640286,0.899123 1.067143,0.899123c0.533571,0 0.853714,-0.359649 1.067143,-0.899123s0.320143,-1.438597 0.320143,-2.697369c0,-1.078948 -0.106714,-1.978071 -0.320143,-2.697369s-0.640286,-0.899123 -1.067143,-0.899123c-0.533571,0 -0.853714,0.359649 -1.067143,0.899123s-0.320143,1.438597 -0.320143,2.697369z" class="st1"/>
    <path stroke="null" id="svg_8" d="m90.392894,14.272805c0,1.978071 -0.320143,3.416667 -0.853714,4.495615s-1.387286,1.618421 -2.454429,1.618421c-0.640286,0 -1.280572,-0.179825 -1.814143,-0.719298s-0.853714,-1.258772 -1.173857,-2.157895s-0.426857,-1.978071 -0.426857,-3.236843c0,-1.978071 0.320143,-3.416667 0.853714,-4.495615s1.387286,-1.618421 2.561143,-1.618421c0.640286,0 1.280572,0.179825 1.814143,0.719298s0.853714,1.258772 1.173857,2.157895s0.320143,1.978071 0.320143,3.236843zm-4.908858,0c0,1.078948 0.106714,1.978071 0.320143,2.697369s0.640286,0.899123 1.067143,0.899123c0.533571,0 0.853714,-0.359649 1.067143,-0.899123s0.320143,-1.438597 0.320143,-2.697369c0,-1.078948 -0.106714,-1.978071 -0.320143,-2.697369s-0.640286,-0.899123 -1.067143,-0.899123c-0.533571,0 -0.853714,0.359649 -1.067143,0.899123s-0.320143,1.438597 -0.320143,2.697369z" class="st1"/>
    <path stroke="null" id="svg_9" d="m93.807751,13.733331l0.853714,-1.798246l1.920857,-3.596492l2.134286,0l-2.774572,5.035089l2.988,6.65351l-2.241,0l-2.027572,-4.855264l-0.853714,1.078948l0,3.596492l-1.920857,0l0,-16.364039l1.920857,0l0,7.372809l0,2.877194l0,0z" class="st1"/>
   </g>
   <rect stroke="null" height="17.733333" width="13.344572" class="st2" y="3.716667" x="5.613458" id="Rectángulo_741"/>
   <path stroke="null" d="m17.634602,1.5l-14.557715,0c-1.433714,0 -2.646857,1.283333 -2.646857,2.8c0,0 0,0 0,0l0,15.399999c0,1.516667 1.213143,2.8 2.646857,2.8l7.168572,0l0,-7.583333l-1.874857,0c-0.220571,0 -0.441143,-0.233333 -0.441143,-0.466667l0,-2.45c0,-0.233333 0.220571,-0.466667 0.441143,-0.466667l1.874857,0l0,-2.333333c-0.220571,-2.1 1.213143,-3.966667 3.198286,-4.2c0.220571,0 0.441143,0 0.661714,0l1.874857,0c0.220571,0 0.441143,0.233333 0.441143,0.466667l0,1.983333c0,0.233333 -0.220571,0.466667 -0.441143,0.466667l-1.213143,0c-1.213143,0 -1.433714,0.583333 -1.433714,1.516667l0,1.983333l2.757143,0c0.220571,0 0.441143,0.233333 0.441143,0.466667c0,0 0,0 0,0l-0.220571,2.45c0,0.233333 -0.220571,0.35 -0.441143,0.35l-2.426286,0l0,7.583333l4.301143,0c1.433714,0 2.646857,-1.283333 2.646857,-2.8l0,0l0,-15.399999c0,-1.283333 -1.213143,-2.566667 -2.757143,-2.566667c0,0 0,0 0,0z" class="st3" id="facebook"/>
  </g>
 </g>
</svg>