<?xml version="1.0" encoding="utf-8"?>
<!-- Generator: Adobe Illustrator 24.0.1, SVG Export Plug-In . SVG Version: 6.00 Build 0)  -->
<svg version="1.1" id="Capa_1" xmlns="http://www.w3.org/2000/svg" xmlns:xlink="http://www.w3.org/1999/xlink" x="0px" y="0px"
	 viewBox="0 0 88.3 21" style="enable-background:new 0 0 88.3 21;" xml:space="preserve">
<style type="text/css">
	.st0{enable-background:new    ;}
	.st1{fill:#777777;}
	.st2{fill:#FFFFFF;}
	.st3{fill:#475993;}
</style>
<g id="Grupo_528" transform="translate(-1273.97 -418)">
	<g class="st0">
		<path class="st1" d="M1307.7,436.5h-1.8v-8.6h4.9v1.5h-3.1v2.2h2.9v1.5h-2.9V436.5z"/>
		<path class="st1" d="M1316.5,436.5l-0.3-0.9h0c-0.3,0.4-0.6,0.6-0.9,0.8s-0.7,0.2-1.2,0.2c-0.6,0-1.1-0.2-1.5-0.5
			s-0.5-0.9-0.5-1.5c0-0.7,0.2-1.2,0.7-1.5s1.2-0.5,2.2-0.5l1.1,0v-0.3c0-0.7-0.3-1-1-1c-0.5,0-1.1,0.2-1.8,0.5l-0.6-1.2
			c0.8-0.4,1.6-0.6,2.5-0.6c0.9,0,1.6,0.2,2,0.6s0.7,1,0.7,1.7v4.4H1316.5z M1316,433.4l-0.7,0c-0.5,0-0.9,0.1-1.2,0.3
			s-0.4,0.4-0.4,0.8c0,0.5,0.3,0.8,0.9,0.8c0.4,0,0.7-0.1,1-0.4s0.4-0.6,0.4-0.9V433.4z"/>
		<path class="st1" d="M1322.3,436.6c-2,0-3.1-1.1-3.1-3.4c0-1.1,0.3-2,0.8-2.6s1.3-0.9,2.4-0.9c0.8,0,1.4,0.1,2,0.4l-0.5,1.4
			c-0.3-0.1-0.5-0.2-0.8-0.3s-0.5-0.1-0.7-0.1c-0.9,0-1.4,0.7-1.4,2c0,1.3,0.5,1.9,1.4,1.9c0.3,0,0.7,0,1-0.1s0.6-0.2,0.9-0.4v1.5
			c-0.3,0.2-0.6,0.3-0.9,0.4S1322.7,436.6,1322.3,436.6z"/>
		<path class="st1" d="M1328.8,436.6c-1.1,0-1.9-0.3-2.5-0.9s-0.9-1.4-0.9-2.5c0-1.1,0.3-1.9,0.8-2.5s1.3-0.9,2.3-0.9
			c0.9,0,1.6,0.3,2.2,0.8s0.8,1.3,0.8,2.2v0.9h-4.2c0,0.5,0.2,0.9,0.5,1.2s0.7,0.4,1.2,0.4c0.4,0,0.8,0,1.1-0.1s0.7-0.2,1.1-0.4v1.4
			c-0.3,0.2-0.6,0.3-1,0.3S1329.3,436.6,1328.8,436.6z M1328.5,431.1c-0.4,0-0.7,0.1-0.9,0.4s-0.3,0.6-0.4,1h2.5
			c0-0.4-0.1-0.8-0.3-1S1328.9,431.1,1328.5,431.1z"/>
		<path class="st1" d="M1336.5,429.8c0.8,0,1.4,0.3,1.8,0.9s0.7,1.4,0.7,2.5c0,1.1-0.2,1.9-0.7,2.5s-1.1,0.9-1.8,0.9
			c-0.8,0-1.4-0.3-1.8-0.8h-0.1l-0.3,0.7h-1.4v-9.1h1.8v2.1c0,0.3,0,0.7-0.1,1.3h0.1C1335.1,430.1,1335.7,429.8,1336.5,429.8z
			 M1336,431.2c-0.4,0-0.8,0.1-1,0.4s-0.3,0.7-0.3,1.3v0.2c0,0.7,0.1,1.2,0.3,1.5s0.5,0.5,1,0.5c0.4,0,0.7-0.2,0.9-0.5
			s0.3-0.8,0.3-1.5s-0.1-1.1-0.3-1.5S1336.3,431.2,1336,431.2z"/>
		<path class="st1" d="M1346.4,433.2c0,1.1-0.3,1.9-0.8,2.5s-1.3,0.9-2.3,0.9c-0.6,0-1.2-0.1-1.7-0.4s-0.8-0.7-1.1-1.2
			s-0.4-1.1-0.4-1.8c0-1.1,0.3-1.9,0.8-2.5s1.3-0.9,2.4-0.9c0.6,0,1.2,0.1,1.7,0.4s0.8,0.7,1.1,1.2S1346.4,432.5,1346.4,433.2z
			 M1341.9,433.2c0,0.6,0.1,1.1,0.3,1.5s0.6,0.5,1,0.5c0.5,0,0.8-0.2,1-0.5s0.3-0.8,0.3-1.5c0-0.6-0.1-1.1-0.3-1.5s-0.6-0.5-1-0.5
			c-0.5,0-0.8,0.2-1,0.5S1341.9,432.5,1341.9,433.2z"/>
		<path class="st1" d="M1353.9,433.2c0,1.1-0.3,1.9-0.8,2.5s-1.3,0.9-2.3,0.9c-0.6,0-1.2-0.1-1.7-0.4s-0.8-0.7-1.1-1.2
			s-0.4-1.1-0.4-1.8c0-1.1,0.3-1.9,0.8-2.5s1.3-0.9,2.4-0.9c0.6,0,1.2,0.1,1.7,0.4s0.8,0.7,1.1,1.2S1353.9,432.5,1353.9,433.2z
			 M1349.3,433.2c0,0.6,0.1,1.1,0.3,1.5s0.6,0.5,1,0.5c0.5,0,0.8-0.2,1-0.5s0.3-0.8,0.3-1.5c0-0.6-0.1-1.1-0.3-1.5s-0.6-0.5-1-0.5
			c-0.5,0-0.8,0.2-1,0.5S1349.3,432.5,1349.3,433.2z"/>
		<path class="st1" d="M1357.1,432.9l0.8-1l1.8-2h2l-2.6,2.8l2.8,3.7h-2.1l-1.9-2.7l-0.8,0.6v2h-1.8v-9.1h1.8v4.1L1357.1,432.9
			L1357.1,432.9z"/>
	</g>
	<rect id="Rectángulo_741" x="1279.1" y="421.4" class="st2" width="12.1" height="15.2"/>
	<path id="facebook" class="st3" d="M1290,419.5h-13.2c-1.3,0-2.4,1.1-2.4,2.4c0,0,0,0,0,0v13.2c0,1.3,1.1,2.4,2.4,2.4h6.5l0-6.5
		h-1.7c-0.2,0-0.4-0.2-0.4-0.4l0-2.1c0-0.2,0.2-0.4,0.4-0.4h1.7v-2c-0.2-1.8,1.1-3.4,2.9-3.6c0.2,0,0.4,0,0.6,0h1.7
		c0.2,0,0.4,0.2,0.4,0.4v1.7c0,0.2-0.2,0.4-0.4,0.4h-1.1c-1.1,0-1.3,0.5-1.3,1.3v1.7h2.5c0.2,0,0.4,0.2,0.4,0.4c0,0,0,0,0,0
		l-0.2,2.1c0,0.2-0.2,0.3-0.4,0.3h-2.2l0,6.5h3.9c1.3,0,2.4-1.1,2.4-2.4l0,0v-13.2C1292.5,420.6,1291.4,419.5,1290,419.5
		C1290,419.5,1290,419.5,1290,419.5z"/>
</g>
</svg>
