<svg xmlns="http://www.w3.org/2000/svg" xmlns:xlink="http://www.w3.org/1999/xlink" width="440" height="451" viewBox="0 0 440 451">
  <defs>
    <linearGradient id="linear-gradient" x1="0.489" y1="0.5" x2="0.029" y2="-0.043" gradientUnits="objectBoundingBox">
      <stop offset="0" stop-color="#3f19f9"/>
      <stop offset="1" stop-color="#32ffd2"/>
    </linearGradient>
    <linearGradient id="linear-gradient-2" x1="0.5" x2="0.5" y2="1" gradientUnits="objectBoundingBox">
      <stop offset="0" stop-color="#3f19f9"/>
      <stop offset="1" stop-color="#1e0e6f"/>
    </linearGradient>
    <clipPath id="clip-path">
      <rect id="Rectángulo_1792" data-name="Rectángulo 1792" width="440" height="451" rx="11" transform="translate(-0.344 -0.262)" fill="url(#linear-gradient)"/>
    </clipPath>
  </defs>
  <g id="PackageC" transform="translate(-387 -4416)">
    <rect id="Rectángulo_1791" data-name="Rectángulo 1791" width="440" height="451" rx="11" transform="translate(387 4416)" fill="url(#linear-gradient-2)"/>
    <g id="Enmascarar_grupo_15" data-name="Enmascarar grupo 15" transform="translate(387.344 4416.262)" clip-path="url(#clip-path)">
      <g id="Grupo_1498" data-name="Grupo 1498" transform="translate(272.304 -52.325)" opacity="0.3" style="isolation: isolate">
        <g id="Grupo_1497" data-name="Grupo 1497" transform="translate(0 0)">
          <g id="Grupo_1496" data-name="Grupo 1496">
            <g id="Grupo_1495" data-name="Grupo 1495">
              <g id="Grupo_1494" data-name="Grupo 1494">
                <g id="Grupo_1489" data-name="Grupo 1489" transform="translate(19.558 18.954)">
                  <line id="Línea_130" data-name="Línea 130" x1="12.922" y2="12.922" transform="translate(0 128.342)" fill="none" stroke="#fff" stroke-linecap="round" stroke-linejoin="round" stroke-width="2"/>
                  <line id="Línea_131" data-name="Línea 131" x1="12.921" y2="12.921" transform="translate(128.342)" fill="none" stroke="#fff" stroke-linecap="round" stroke-linejoin="round" stroke-width="2"/>
                  <line id="Línea_132" data-name="Línea 132" x1="12.917" y2="12.917" transform="translate(20.384 148.731)" fill="none" stroke="#fff" stroke-linecap="round" stroke-linejoin="round" stroke-width="2"/>
                  <line id="Línea_133" data-name="Línea 133" x1="12.92" y2="12.92" transform="translate(148.729 20.385)" fill="none" stroke="#fff" stroke-linecap="round" stroke-linejoin="round" stroke-width="2"/>
                </g>
                <g id="Grupo_1490" data-name="Grupo 1490" transform="translate(17.502 0.438)">
                  <path id="Trazado_2791" data-name="Trazado 2791" d="M667.215,398.283v17.776a82.9,82.9,0,0,0,0,163.126v17.7" transform="translate(-599.134 -398.283)" fill="none" stroke="#fff" stroke-linecap="round" stroke-linejoin="round" stroke-width="2"/>
                  <path id="Trazado_2792" data-name="Trazado 2792" d="M623.64,398.283v17.776a82.9,82.9,0,0,1-.334,163.187v17.643" transform="translate(-525.961 -398.283)" fill="none" stroke="#fff" stroke-linecap="round" stroke-linejoin="round" stroke-width="2"/>
                </g>
                <g id="Grupo_1491" data-name="Grupo 1491" transform="translate(41.796 64.663)">
                  <path id="Trazado_2793" data-name="Trazado 2793" d="M646.379,416.607l-27.977,0a13.215,13.215,0,0,0-11.445,19.822l25.827,44.73a13.215,13.215,0,0,0,22.887,0l8.083-14,0-.008,8.09,14.007a13.215,13.215,0,0,0,22.891,0l25.811-44.738A13.213,13.213,0,0,0,709.1,416.6l-27.748,0" transform="translate(-605.167 -407.051)" fill="none" stroke="#fff" stroke-linecap="round" stroke-linejoin="round" stroke-width="2"/>
                  <path id="Trazado_2794" data-name="Trazado 2794" d="M617.47,444.411a19.995,19.995,0,1,1,34.562,0l-17.281,29.926Z" transform="translate(-576.166 -414.231)" fill="none" stroke="#fff" stroke-linecap="round" stroke-linejoin="round" stroke-width="2"/>
                  <circle id="Elipse_187" data-name="Elipse 187" cx="6.537" cy="6.537" r="6.537" transform="translate(52.048 13.469)" stroke-width="2" stroke="#fff" stroke-linecap="round" stroke-linejoin="round" fill="none"/>
                </g>
                <circle id="Elipse_148" data-name="Elipse 148" cx="100.5" cy="100.5" r="100.5" transform="translate(0.353 0.063)" stroke-width="2" stroke="#fff" stroke-linecap="round" stroke-linejoin="round" fill="none"/>
                <g id="Grupo_1492" data-name="Grupo 1492" transform="translate(19.558 18.954)">
                  <line id="Línea_134" data-name="Línea 134" x2="12.922" y2="12.922" transform="translate(128.342 148.726)" fill="none" stroke="#fff" stroke-linecap="round" stroke-linejoin="round" stroke-width="2"/>
                  <line id="Línea_135" data-name="Línea 135" x2="12.921" y2="12.921" transform="translate(0 20.385)" fill="none" stroke="#fff" stroke-linecap="round" stroke-linejoin="round" stroke-width="2"/>
                  <line id="Línea_136" data-name="Línea 136" x2="12.917" y2="12.917" transform="translate(148.732 128.347)" fill="none" stroke="#fff" stroke-linecap="round" stroke-linejoin="round" stroke-width="2"/>
                  <line id="Línea_137" data-name="Línea 137" x2="12.92" y2="12.92" transform="translate(20.384)" fill="none" stroke="#fff" stroke-linecap="round" stroke-linejoin="round" stroke-width="2"/>
                </g>
                <g id="Grupo_1493" data-name="Grupo 1493" transform="translate(0.493 85.364)">
                  <line id="Línea_138" data-name="Línea 138" x2="18.274" transform="translate(181.504 28.828)" fill="none" stroke="#fff" stroke-linecap="round" stroke-linejoin="round" stroke-width="2"/>
                  <line id="Línea_139" data-name="Línea 139" x2="18.274" transform="translate(0 28.828)" fill="none" stroke="#fff" stroke-linecap="round" stroke-linejoin="round" stroke-width="2"/>
                  <line id="Línea_140" data-name="Línea 140" x2="18.267" transform="translate(181.511)" fill="none" stroke="#fff" stroke-linecap="round" stroke-linejoin="round" stroke-width="2"/>
                  <line id="Línea_141" data-name="Línea 141" x2="18.271" stroke-width="2" stroke="#fff" stroke-linecap="round" stroke-linejoin="round" fill="none"/>
                </g>
              </g>
            </g>
          </g>
        </g>
      </g>
    </g>
  </g>
</svg>
