<svg xmlns="http://www.w3.org/2000/svg" width="67.435" height="56.587" viewBox="0 0 67.435 56.587">
  <path id="Trazado_2210" data-name="Trazado 2210" d="M66.312,64.646H65.188V61.382a5.438,5.438,0,0,0-3.372-4.98V39.618a1.088,1.088,0,0,0-.674-1,4.207,4.207,0,0,0,.674-2.268,4.5,4.5,0,0,0-8.991,0,4.206,4.206,0,0,0,.625,2.176H13.986a4.206,4.206,0,0,0,.625-2.176A4.426,4.426,0,0,0,10.115,32a4.426,4.426,0,0,0-4.5,4.353,4.207,4.207,0,0,0,.674,2.268,1.088,1.088,0,0,0-.674,1V56.4a5.438,5.438,0,0,0-3.372,4.98v3.265H1.124A1.107,1.107,0,0,0,0,65.735V80.97a1.107,1.107,0,0,0,1.124,1.088H2.248V87.5a1.107,1.107,0,0,0,1.124,1.088h4.5A1.107,1.107,0,0,0,8.991,87.5V82.058H58.444V87.5a1.107,1.107,0,0,0,1.124,1.088h4.5A1.107,1.107,0,0,0,65.188,87.5V82.058h1.124a1.107,1.107,0,0,0,1.124-1.088V65.735A1.107,1.107,0,0,0,66.312,64.646ZM57.32,34.176a2.178,2.178,0,1,1-2.248,2.176A2.213,2.213,0,0,1,57.32,34.176Zm-47.2,0a2.178,2.178,0,1,1-2.248,2.176A2.213,2.213,0,0,1,10.115,34.176ZM7.867,40.706h51.7V55.941H55.043A5.275,5.275,0,0,0,56.2,52.676V50.5a5.539,5.539,0,0,0-5.62-5.441H41.585a5.539,5.539,0,0,0-5.62,5.441v2.176a5.275,5.275,0,0,0,1.153,3.265h-6.8a5.275,5.275,0,0,0,1.153-3.265V50.5a5.539,5.539,0,0,0-5.62-5.441H16.859a5.539,5.539,0,0,0-5.62,5.441v2.176a5.275,5.275,0,0,0,1.153,3.265H7.867ZM53.948,50.5v2.176a3.319,3.319,0,0,1-3.372,3.265H41.585a3.319,3.319,0,0,1-3.372-3.265V50.5a3.319,3.319,0,0,1,3.372-3.265h8.991A3.319,3.319,0,0,1,53.948,50.5Zm-24.726,0v2.176a3.32,3.32,0,0,1-3.372,3.265H16.859a3.32,3.32,0,0,1-3.372-3.265V50.5a3.319,3.319,0,0,1,3.372-3.265H25.85A3.319,3.319,0,0,1,29.222,50.5ZM4.5,61.382a3.319,3.319,0,0,1,3.372-3.265h51.7a3.319,3.319,0,0,1,3.372,3.265v3.265H4.5ZM6.744,86.411H4.5V82.058H6.744Zm56.2,0H60.692V82.058H62.94Zm2.248-6.529H2.248V66.823h62.94Z" transform="translate(0 -32)" fill="#3f19f9"/>
</svg>
