<svg id="uploadIcon" xmlns="http://www.w3.org/2000/svg" width="82.711" height="76.452" viewBox="0 0 82.711 76.452">
  <g id="Grupo_941" data-name="Grupo 941" transform="translate(0 0)">
    <path id="Trazado_2398" data-name="Trazado 2398" d="M67.267,38.367a23.959,23.959,0,0,0-44.391-7.96,13.724,13.724,0,0,0-2.517-.238A13.131,13.131,0,0,0,7.245,43.283,14.334,14.334,0,0,0,7.518,46,18.248,18.248,0,0,0,0,60.716,19.508,19.508,0,0,0,4.949,73.625,17.665,17.665,0,0,0,17.2,79.782H31.958a2.3,2.3,0,1,0,0-4.592H17.4C10.443,74.764,4.592,68.148,4.592,60.7a13.632,13.632,0,0,1,6.752-11.735,2.315,2.315,0,0,0,1-2.789,8.332,8.332,0,0,1-.51-2.925,8.536,8.536,0,0,1,8.521-8.521,8.376,8.376,0,0,1,2.908.51,2.307,2.307,0,0,0,2.874-1.174A19.365,19.365,0,0,1,62.93,40.442a2.293,2.293,0,0,0,1.9,2.041c7.569,1.293,13.283,8.283,13.283,16.26,0,8.453-6.65,15.8-14.848,16.43H50.736a2.3,2.3,0,1,0,0,4.592h12.79A20.349,20.349,0,0,0,77.166,73.03a21.168,21.168,0,0,0-9.9-34.662Z" transform="translate(0 -18.4)" fill="#3f19f9"/>
    <path id="Trazado_2399" data-name="Trazado 2399" d="M186.456,201.491a2.289,2.289,0,0,0,0-3.249L174.294,186.08a2.323,2.323,0,0,0-1.616-.68,2.253,2.253,0,0,0-1.616.68L158.9,198.242a2.3,2.3,0,0,0,1.616,3.929,2.24,2.24,0,0,0,1.616-.68l8.25-8.249v37.914a2.3,2.3,0,1,0,4.592,0V193.241l8.249,8.249A2.269,2.269,0,0,0,186.456,201.491Z" transform="translate(-131.315 -156.999)" fill="#3f19f9"/>
  </g>
</svg>
