<svg xmlns="http://www.w3.org/2000/svg" width="81" height="80" viewBox="0 0 81 80">
  <g id="witiwalletIcon" transform="translate(1.5 1.404)" style="isolation: isolate">
    <g id="Grupo_1012" data-name="Grupo 1012" transform="translate(0 0.096)">
      <g id="Grupo_1009" data-name="Grupo 1009" transform="translate(0 0)">
        <g id="Grupo_1008" data-name="Grupo 1008" transform="translate(0 0)">
          <g id="Grupo_1007" data-name="Grupo 1007" transform="translate(0 0)">
            <g id="Grupo_1002" data-name="Grupo 1002" transform="translate(7.748 7.238)">
              <line id="Línea_66" data-name="Línea 66" x1="4.988" y2="4.988" transform="translate(0 49.547)" fill="none" stroke="#3f19f9" stroke-linecap="round" stroke-linejoin="round" stroke-width="3"/>
              <line id="Línea_67" data-name="Línea 67" x1="4.988" y2="4.988" transform="translate(49.547)" fill="none" stroke="#3f19f9" stroke-linecap="round" stroke-linejoin="round" stroke-width="3"/>
              <line id="Línea_68" data-name="Línea 68" x1="4.987" y2="4.987" transform="translate(7.869 57.418)" fill="none" stroke="#3f19f9" stroke-linecap="round" stroke-linejoin="round" stroke-width="3"/>
              <line id="Línea_69" data-name="Línea 69" x1="4.988" y2="4.988" transform="translate(57.417 7.87)" fill="none" stroke="#3f19f9" stroke-linecap="round" stroke-linejoin="round" stroke-width="3"/>
            </g>
            <g id="Grupo_1003" data-name="Grupo 1003" transform="translate(6.954 0.09)">
              <path id="Trazado_2464" data-name="Trazado 2464" d="M625.417,398.283v6.862a32,32,0,0,0,0,62.975v6.834" transform="translate(-599.134 -398.283)" fill="none" stroke="#3f19f9" stroke-linecap="round" stroke-linejoin="round" stroke-width="3"/>
              <path id="Trazado_2465" data-name="Trazado 2465" d="M623.435,398.283v6.862a32,32,0,0,1-.129,63v6.811" transform="translate(-585.726 -398.283)" fill="none" stroke="#3f19f9" stroke-linecap="round" stroke-linejoin="round" stroke-width="3"/>
            </g>
            <g id="Grupo_1004" data-name="Grupo 1004" transform="translate(16.333 24.885)">
              <path id="Trazado_2466" data-name="Trazado 2466" d="M621.077,416.6l-10.8,0a5.1,5.1,0,0,0-4.419,7.652l9.971,17.268a5.1,5.1,0,0,0,8.836,0l3.12-5.4,0,0,3.123,5.407a5.1,5.1,0,0,0,8.837,0l9.964-17.271a5.1,5.1,0,0,0-4.42-7.651H634.578" transform="translate(-605.167 -412.915)" fill="none" stroke="#3f19f9" stroke-linecap="round" stroke-linejoin="round" stroke-width="3"/>
              <path id="Trazado_2467" data-name="Trazado 2467" d="M615.8,425.882a7.719,7.719,0,1,1,13.343,0l-6.671,11.553Z" transform="translate(-599.852 -414.231)" fill="none" stroke="#3f19f9" stroke-linecap="round" stroke-linejoin="round" stroke-width="3"/>
              <circle id="Elipse_160" data-name="Elipse 160" cx="2.524" cy="2.524" r="2.524" transform="translate(20.093 5.2)" stroke-width="3" stroke="#3f19f9" stroke-linecap="round" stroke-linejoin="round" fill="none"/>
            </g>
            <ellipse id="Elipse_148" data-name="Elipse 148" cx="39" cy="38.5" rx="39" ry="38.5" stroke-width="3" stroke="#3f19f9" stroke-linecap="round" stroke-linejoin="round" fill="none"/>
            <g id="Grupo_1005" data-name="Grupo 1005" transform="translate(7.748 7.238)">
              <line id="Línea_70" data-name="Línea 70" x2="4.988" y2="4.988" transform="translate(49.547 57.416)" fill="none" stroke="#3f19f9" stroke-linecap="round" stroke-linejoin="round" stroke-width="3"/>
              <line id="Línea_71" data-name="Línea 71" x2="4.988" y2="4.988" transform="translate(0 7.87)" fill="none" stroke="#3f19f9" stroke-linecap="round" stroke-linejoin="round" stroke-width="3"/>
              <line id="Línea_72" data-name="Línea 72" x2="4.987" y2="4.987" transform="translate(57.418 49.549)" fill="none" stroke="#3f19f9" stroke-linecap="round" stroke-linejoin="round" stroke-width="3"/>
              <line id="Línea_73" data-name="Línea 73" x2="4.988" y2="4.988" transform="translate(7.869)" fill="none" stroke="#3f19f9" stroke-linecap="round" stroke-linejoin="round" stroke-width="3"/>
            </g>
            <g id="Grupo_1006" data-name="Grupo 1006" transform="translate(0.388 32.876)">
              <line id="Línea_74" data-name="Línea 74" x2="7.055" transform="translate(70.07 11.129)" fill="none" stroke="#3f19f9" stroke-linecap="round" stroke-linejoin="round" stroke-width="3"/>
              <line id="Línea_75" data-name="Línea 75" x2="7.055" transform="translate(0 11.129)" fill="none" stroke="#3f19f9" stroke-linecap="round" stroke-linejoin="round" stroke-width="3"/>
              <line id="Línea_76" data-name="Línea 76" x2="7.052" transform="translate(70.073)" fill="none" stroke="#3f19f9" stroke-linecap="round" stroke-linejoin="round" stroke-width="3"/>
              <line id="Línea_77" data-name="Línea 77" x2="7.054" stroke-width="3" stroke="#3f19f9" stroke-linecap="round" stroke-linejoin="round" fill="none"/>
            </g>
          </g>
        </g>
      </g>
    </g>
  </g>
</svg>
