<?xml version="1.0" encoding="utf-8"?>
<!-- Generator: Adobe Illustrator 24.1.3, SVG Export Plug-In . SVG Version: 6.00 Build 0)  -->
<svg version="1.1" id="Capa_1" xmlns="http://www.w3.org/2000/svg" xmlns:xlink="http://www.w3.org/1999/xlink" x="0px" y="0px"
	 viewBox="0 0 43.1 38.2" style="enable-background:new 0 0 43.1 38.2;" xml:space="preserve">
<style type="text/css">
	.st0{opacity:0.35;fill:#2A11A0;enable-background:new    ;}
	.st1{fill:#FFFFFF;}
</style>
<circle id="Elipse_27" class="st0" cx="21.6" cy="19.1" r="17.5"/>
<path class="st1" d="M30.6,16.8c0-0.6-0.1-1.2-0.2-1.8c-0.3-1-0.8-1.5-1.7-1.8c-0.5-0.1-1-0.2-1.5-0.2c-0.6,0-1.3-0.1-1.9-0.1
	c-1-0.1-2.1-0.1-3.1-0.1c-2,0-4,0.1-6,0.2c-0.5,0.1-1,0.1-1.5,0.2c-0.9,0.2-1.5,0.7-1.8,1.6c-0.2,0.7-0.2,1.4-0.3,2.1
	c-0.1,0.6-0.1,1.2-0.1,1.8c-0.1,1.1,0,2.3,0.1,3.4c0,0.5,0.1,0.9,0.2,1.4c0.2,0.9,0.8,1.5,1.7,1.7c0.5,0.1,1.1,0.2,1.7,0.2
	c0.8,0,1.5,0.1,2.3,0.1c1,0,2,0,3.4,0c1.5-0.1,3.3-0.1,5.1,0c0.5-0.1,1-0.1,1.5-0.2c0.9-0.2,1.5-0.7,1.8-1.6
	c0.2-0.7,0.2-1.4,0.3-2.1c0.1-0.6,0.1-1.3,0.1-1.9C30.7,18.7,30.7,17.8,30.6,16.8z M19.8,21.8c0-1.8,0-3.6,0-5.4
	c1.6,0.9,3.1,1.8,4.7,2.7C22.9,20,21.4,20.9,19.8,21.8z"/>
</svg>
