<svg id="Grupo_475" data-name="Grupo 475" xmlns="http://www.w3.org/2000/svg" width="49.354" height="34" viewBox="0 0 49.354 34">
  <path id="Trazado_2172" data-name="Trazado 2172" d="M317.567,829.16a5.566,5.566,0,0,0-4.82,8.349l10.878,18.841a5.566,5.566,0,0,0,9.641,0l3.406-5.9,3.408,5.9a5.567,5.567,0,0,0,9.641,0l10.873-18.844a5.566,5.566,0,0,0-4.823-8.348Z" transform="translate(-311.992 -825.133)" fill="#32ffd2"/>
  <path id="Trazado_2173" data-name="Trazado 2173" d="M317.567,829.163a5.566,5.566,0,0,0-4.82,8.35l10.878,18.841a5.566,5.566,0,0,0,9.641,0l3.406-5.9V829.163Z" transform="translate(-311.992 -825.137)" fill="#fff"/>
  <g id="Grupo_346" data-name="Grupo 346" transform="translate(16.252 0)">
    <path id="Trazado_2174" data-name="Trazado 2174" d="M349.432,832.884a8.422,8.422,0,1,1,14.556,0L356.71,845.49Z" transform="translate(-348.284 -820.172)" fill="#41b8f9"/>
    <circle id="Elipse_11" data-name="Elipse 11" cx="2.753" cy="2.753" r="2.753" transform="translate(5.673 5.673)" fill="#fff"/>
  </g>
</svg>
